<svg xmlns="http://www.w3.org/2000/svg" viewBox="0 0 24 24" class="design-iconfont">
  <g fill="#CCC" fill-rule="nonzero">
    <path d="M9.375,0.00291666667 C13.0555176,0.00291666667 16.0391667,2.98656571 16.0391667,6.66708333 C16.0391667,8.43453022 15.3370511,10.1295871 14.0872774,11.3793608 C12.8375038,12.6291345 11.1424469,13.33125 9.375,13.33125 C5.69448238,13.33125 2.71083333,10.347601 2.71083333,6.66708333 C2.71083333,2.98656571 5.69448238,0.00291666667 9.375,0.00291666667 Z M9.58771621,3.58745109 C9.48783964,3.54027687 9.36863141,3.58300056 9.32145718,3.68287714 L9.32145718,3.68287714 L8.48490839,5.45400584 L6.47458086,5.65900971 C6.42356571,5.66421199 6.37649776,5.68881091 6.34310097,5.72772446 C6.27116401,5.81154457 6.2807972,5.93781062 6.36461731,6.00974759 L6.36461731,6.00974759 L7.85612597,7.28980557 L7.43960429,9.17060584 C7.42916105,9.21776223 7.43613537,9.26710483 7.45923905,9.30951954 C7.51207585,9.40651959 7.63354262,9.44232098 7.73054267,9.38948418 L7.73054267,9.38948418 L9.50229972,8.42439219 L11.2740568,9.38948418 C11.3164715,9.41258785 11.3658141,9.41956218 11.4129705,9.40911893 C11.5208145,9.38523582 11.5888783,9.27844986 11.5649951,9.17060584 L11.5649951,9.17060584 L11.1484735,7.28980557 L12.6399821,6.00974759 C12.6788957,5.9763508 12.7034946,5.92928285 12.7086969,5.8782677 C12.7199026,5.76838063 12.6399056,5.67021548 12.5300186,5.65900971 L12.5300186,5.65900971 L10.519691,5.45400584 L9.68314225,3.68287714 C9.66335003,3.64097334 9.62962001,3.60724332 9.58771621,3.58745109 Z" transform="translate(3 2.5)"/>
    <path d="M6.45208333,14.1120833 C8.35375,14.8654167 10.5129167,14.8483333 12.4054167,14.0695833 C13.5170833,13.6123611 14.48625,12.9288889 15.3129167,12.0191667 C15.3270833,12.0036111 15.3447222,11.9961111 15.3658333,11.9966379 C15.6258333,12.0030556 15.9004167,12.0038889 16.1895833,11.9991667 C16.6065278,11.9922222 16.8831944,12.0005556 17.0195833,12.0241667 C17.84375,12.1670833 18.4845833,12.77125 18.6616667,13.5820833 C18.6983333,13.7501389 18.7152778,14.0195833 18.7125,14.3904167 C18.7069444,15.1540278 18.7052778,15.9036111 18.7075,16.6391667 C18.7108333,17.5975 18.0620833,18.4125 17.1245833,18.6204167 C16.9754167,18.6534722 16.7122222,18.6698611 16.335,18.6695868 C11.6816667,18.6654167 6.94347222,18.665 2.12041667,18.6683333 C1.51902778,18.6686111 1.02055556,18.4702778 0.625,18.0733333 C0.354722222,17.8019444 0.176805556,17.4776389 0.09125,17.1004167 C0.0529166667,16.93125 0.0351388889,16.67125 0.0379166667,16.3204167 C0.0440277778,15.5148611 0.0447222222,14.7705556 0.04,14.0875 C0.0333333333,13.11375 0.617916667,12.31375 1.54958333,12.06125 C1.72402778,12.0140278 1.99138889,11.9927778 2.35166667,11.9975 C2.71666667,12.0022222 3.06222222,12.0023611 3.38833333,11.9979167 C3.4075,11.9979167 3.42347222,12.0048611 3.43625,12.01875 C4.29097222,12.9565278 5.29625,13.6543056 6.45208333,14.1120833 Z M15.3720833,15.9920833 C15.3720833,15.6284959 15.0773375,15.33375 14.71375,15.33375 L4.03625,15.33375 C3.67266254,15.33375 3.37791667,15.6284959 3.37791667,15.9920833 L3.37791667,16.0079167 C3.37791667,16.3715041 3.67266254,16.66625 4.03625,16.66625 L14.71375,16.66625 C15.0773375,16.66625 15.3720833,16.3715041 15.3720833,16.0079167 L15.3720833,15.9920833 Z" transform="translate(3 2.5)"/>
  </g>
</svg>
