<svg xmlns="http://www.w3.org/2000/svg" viewBox="0 0 24 24" class="design-iconfont">
  <path d="M9.99994334,10.8334282 L9.99994334,21.5 L5.66664506,21.5 C4.93027106,21.5 4.33332245,20.9030663 4.33332245,20.1666691 L4.33332245,20.1666691 L4.33332245,10.8334282 L9.99994334,10.8334282 Z M13.3332497,10.8334282 L13.3332497,21.5 L10.6666048,21.5 L10.6666048,10.8334282 L13.3332497,10.8334282 Z M19.666532,10.8334282 L19.666532,20.1666691 C19.666532,20.9030663 19.0695834,21.5 18.3332094,21.5 L18.3332094,21.5 L13.9999112,21.5 L13.9999112,10.8334282 L19.666532,10.8334282 Z M9.99994334,6.1667826 L9.99994334,10.1667502 L3.66666128,10.1667502 C3.29733093,10.1667502 3,9.86942974 3,9.5000973 L3,9.5000973 L3,6.83346066 C3,6.46412822 3.29733093,6.1667826 3.66666128,6.1667826 L3.66666128,6.1667826 L9.99994334,6.1667826 Z M13.3332497,6.1667826 L13.3332497,10.1667502 L10.6666048,10.1667502 L10.6666048,6.1667826 L13.3332497,6.1667826 Z M20.3331932,6.1667826 C20.7025236,6.1667826 20.9998544,6.46412822 20.9998544,6.83346066 L20.9998544,6.83346066 L20.9998544,9.5000973 C20.9998544,9.86942974 20.7025236,10.1667502 20.3331932,10.1667502 L20.3331932,10.1667502 L13.9999112,10.1667502 L13.9999112,6.1667826 Z M9.07937682,2.5028375 C9.21787573,2.48545182 9.42192674,2.55675833 9.5324997,2.64217496 C10.1959276,3.15442277 11.1826064,3.91662131 11.5220637,4.17864124 L11.5220637,4.17864124 L9.81114412,5.50010454 L7.6093352,5.50010454 C7.56794215,5.42199494 7.53058308,5.34363337 7.49085049,5.27459456 C7.38969855,5.0346469 7.33329838,4.76970416 7.33329838,4.49266704 C7.33329838,3.47038871 8.09456541,2.62715775 9.07937758,2.50268632 Z M14.9204762,2.50253514 C15.9052883,2.62703177 16.6665554,3.47023753 16.6665554,4.49251586 C16.6665554,4.76955298 16.6101502,5.03457131 16.5090033,5.27444338 C16.4692858,5.34348219 16.4319192,5.42184376 16.3905185,5.49995336 L16.3905185,5.49995336 L10.7655638,5.49995336 L14.467354,2.64202378 C14.5779265,2.55685911 14.7819785,2.48504867 14.9204769,2.50268632 Z" fill="#CCC" fill-rule="nonzero"/>
</svg>
