<svg xmlns="http://www.w3.org/2000/svg" viewBox="0 0 24 24" class="design-iconfont">
  <path d="M11.0964661,8.0077455 C11.5876404,7.62469496 12.2736348,7.62478463 12.7647643,8.0077455 L12.7647643,8.0077455 L19.470771,13.2371361 C19.5797017,13.3220841 19.6434015,13.4524872 19.6434015,13.5906453 L19.6434015,13.5906453 L19.6434015,19.5584336 C19.6434015,20.6290027 18.7724042,21.5 17.7018351,21.5 L17.7018351,21.5 L14.1930564,21.5 C13.9454744,21.5 13.744782,21.2993075 13.744782,21.0517255 L13.744782,21.0517255 L13.744782,16.8728661 C13.744782,15.8725865 12.9309397,15.0587442 11.9306152,15.0587442 C10.9302907,15.0587442 10.1164933,15.8725865 10.1164933,16.8728661 L10.1164933,16.8728661 L10.1164933,21.0517255 C10.1164933,21.2993075 9.91580078,21.5 9.66821879,21.5 L9.66821879,21.5 L6.15944007,21.5 C5.08882619,21.5 4.2178289,20.6290027 4.2178289,19.5584336 L4.2178289,19.5584336 L4.2178289,13.5906453 C4.2178289,13.4524872 4.28152869,13.3220841 4.39045938,13.2371361 L4.39045938,13.2371361 Z M10.5876028,2.96579639 C11.3784038,2.34475695 12.4829073,2.34471212 13.2735738,2.96579639 L13.2735738,2.96579639 L16.9039245,5.81744957 L19.6434194,7.96943597 L22.2066976,9.98295039 C22.5662586,10.2653633 22.7942958,10.6709172 22.848806,11.1248399 C22.9033162,11.5787626 22.7777993,12.0267681 22.4953864,12.3863291 C22.2129735,12.7458452 21.8074644,12.9738824 21.3535417,13.0283926 C20.8992603,13.0829028 20.4515238,12.9573859 20.0920525,12.6750178 L20.0920525,12.6750178 L12.7197755,6.88393935 C12.255139,6.51895428 11.6060824,6.51895428 11.1414459,6.88393935 L11.1414459,6.88393935 L3.76925857,12.6750178 C3.4647009,12.9142171 3.09662273,13.0408995 2.71532047,13.0408995 C2.64646552,13.0408995 2.57716228,13.0367305 2.50772457,13.0283926 C2.05380184,12.9738824 1.64824794,12.7458452 1.36587985,12.3862843 C1.08346694,12.0267681 0.957950088,11.5787626 1.01246026,11.1248399 C1.06701527,10.6709172 1.29505249,10.2653633 1.65456861,9.98295039 L1.65456861,9.98295039 Z" fill="#3F9368" fill-rule="evenodd"/>
</svg>
