<svg xmlns="http://www.w3.org/2000/svg" viewBox="0 0 24 24" class="design-iconfont">
  <path d="M7.72796718,11.8053898 L7.89969184,11.820448 C8.07351792,11.8431525 8.25250205,11.8880336 8.43148618,11.9334426 C9.47083206,12.9477546 10.8856835,13.5718653 12.4444444,13.5718653 C14.0032054,13.5718653 15.4180568,12.9477546 16.4574027,11.9334426 C16.6363868,11.8880336 16.815371,11.8431525 16.989197,11.820448 C17.1630231,11.7977434 17.3311754,11.7977434 17.4879799,11.82256 C17.6442686,11.8468486 17.7886939,11.8964818 17.9573619,11.9582592 C18.12603,12.0195087 18.318425,12.0934304 18.5593057,12.2412739 C18.7996705,12.3891174 19.0890368,12.6108826 19.3655079,12.9810193 C19.6424949,13.3501 19.9071026,13.8680803 20.1479832,14.4842708 C20.3888639,15.0999333 20.6055017,15.8148622 20.7256842,16.5049744 C20.8458666,17.1945587 20.8701094,17.8603824 20.8819729,18.3651623 C20.8943522,18.8704702 20.8943522,19.2157904 20.8458666,19.5484382 C20.7978968,19.881086 20.7019571,20.2010616 20.4848035,20.5215651 C20.2681656,20.8420687 19.9313454,21.1625723 19.534176,21.4086261 C19.1370066,21.6552079 18.6794881,21.8278679 18.0533015,21.913934 C17.4276308,22 16.633292,22 15.6702852,22 L15.6702852,22 L9.2186037,22 C8.25559688,22 7.4612581,22 6.83558735,21.913934 C6.20940081,21.8278679 5.7518823,21.6552079 5.35471291,21.4086261 C4.95754352,21.1625723 4.62072324,20.8420687 4.40408539,20.5215651 C4.18693174,20.2010616 4.09099212,19.881086 4.04302231,19.5484382 C3.9945367,19.2157904 3.9945367,18.8704702 4.006916,18.3651623 C4.0187795,17.8603824 4.04302231,17.1945587 4.16320474,16.5049744 C4.28338716,15.8148622 4.50002501,15.0999333 4.74090567,14.4842708 C4.98178633,13.8680803 5.24639399,13.3501 5.52338095,12.9810193 C5.79985211,12.6108826 6.08921838,12.3891174 6.32958323,12.2412739 C6.57046389,12.0934304 6.76285893,12.0195087 6.93152697,11.9582592 C7.10019501,11.8964818 7.24462025,11.8468486 7.40090898,11.82256 C7.55771352,11.7977434 7.72586576,11.7977434 7.89969184,11.820448 Z M12.4444444,3 C14.9971604,3 17.0665677,5.11838595 17.0665677,7.73151956 C17.0665677,10.3446532 14.9971604,12.4630391 12.4444444,12.4630391 C9.89172845,12.4630391 7.82232118,10.3446532 7.82232118,7.73151956 C7.82232118,5.11838595 9.89172845,3 12.4444444,3 Z" fill="#CCC" fill-rule="evenodd"/>
</svg>
