<svg xmlns="http://www.w3.org/2000/svg" viewBox="0 0 26 24" class="design-iconfont">
  <path d="M12.816,2.0170625 C13.216,2.0170625 13.6,2.0970625 13.968,2.2570625 C14.336,2.4170625 14.652,2.6370625 14.916,2.9170625 C15.18,3.1970625 15.392,3.5210625 15.552,3.8890625 C15.712,4.2570625 15.792,4.6490625 15.792,5.0650625 C15.792,5.6730625 15.636,6.2170625 15.324,6.6970625 C15.012,7.1770625 14.608,7.5450625 14.112,7.8010625 C13.936,8.2970625 13.848,8.8090625 13.848,9.3370625 C13.848,9.9290625 13.956,10.5170625 14.172,11.1010625 C14.388,11.6850625 14.684,12.2130625 15.06,12.6850625 C15.436,13.1570625 15.876,13.5410625 16.38,13.8370625 C16.884,14.1330625 17.424,14.2810625 18,14.2810625 C18.496,14.2810625 18.964,14.1610625 19.404,13.9210625 C19.844,13.6810625 20.244,13.3730625 20.604,12.9970625 C20.964,12.6210625 21.268,12.1970625 21.516,11.7250625 C21.764,11.2530625 21.944,10.7850625 22.056,10.3210625 C21.624,10.1130625 21.272,9.8010625 21,9.3850625 C20.728,8.9690625 20.592,8.5050625 20.592,7.9930625 C20.592,7.6410625 20.656,7.3130625 20.784,7.0090625 C20.912,6.7050625 21.088,6.4410625 21.312,6.2170625 C21.536,5.9930625 21.8,5.8130625 22.104,5.6770625 C22.408,5.5410625 22.728,5.4730625 23.064,5.4730625 C23.4,5.4730625 23.72,5.5410625 24.024,5.6770625 C24.328,5.8130625 24.592,5.9930625 24.816,6.2170625 C25.04,6.4410625 25.216,6.7050625 25.344,7.0090625 C25.472,7.3130625 25.536,7.6410625 25.536,7.9930625 C25.536,8.5050625 25.404,8.9650625 25.14,9.3730625 C24.876,9.7810625 24.536,10.0890625 24.12,10.2970625 C24.04,11.0970625 23.92,11.9130625 23.76,12.7450625 C23.6,13.5770625 23.4,14.4050625 23.16,15.2290625 C22.92,16.0530625 22.64,16.8490625 22.32,17.6170625 C22,18.3850625 21.648,19.0890625 21.264,19.7290625 C19.936,20.2250625 18.56,20.6050625 17.136,20.8690625 C15.712,21.1330625 14.248,21.2650625 12.744,21.2650625 C11.24,21.2650625 9.78,21.1330625 8.364,20.8690625 C6.948,20.6050625 5.568,20.2250625 4.224,19.7290625 C3.84,19.0890625 3.488,18.3850625 3.168,17.6170625 C2.848,16.8490625 2.568,16.0530625 2.328,15.2290625 C2.088,14.4050625 1.884,13.5770625 1.716,12.7450625 C1.548,11.9130625 1.432,11.0970625 1.368,10.2970625 C0.952,10.0890625 0.62,9.7810625 0.372,9.3730625 C0.124,8.9650625 -1.77635684e-15,8.5050625 -1.77635684e-15,7.9930625 C-1.77635684e-15,7.6410625 0.064,7.3130625 0.192,7.0090625 C0.32,6.7050625 0.492,6.4410625 0.708,6.2170625 C0.924,5.9930625 1.18,5.8130625 1.476,5.6770625 C1.772,5.5410625 2.088,5.4730625 2.424,5.4730625 C2.76,5.4730625 3.08,5.5410625 3.384,5.6770625 C3.688,5.8130625 3.952,5.9930625 4.176,6.2170625 C4.4,6.4410625 4.576,6.7050625 4.704,7.0090625 C4.832,7.3130625 4.896,7.6410625 4.896,7.9930625 C4.896,8.5210625 4.76,8.9930625 4.488,9.4090625 C4.216,9.8250625 3.864,10.1290625 3.432,10.3210625 C3.544,10.8010625 3.724,11.2770625 3.972,11.7490625 C4.22,12.2210625 4.524,12.6490625 4.884,13.0330625 C5.244,13.4170625 5.644,13.7290625 6.084,13.9690625 C6.524,14.2090625 6.992,14.3290625 7.488,14.3290625 C8.064,14.3290625 8.604,14.1810625 9.108,13.8850625 C9.612,13.5890625 10.056,13.2050625 10.44,12.7330625 C10.824,12.2610625 11.124,11.7290625 11.34,11.1370625 C11.556,10.5450625 11.664,9.9530625 11.664,9.3610625 C11.664,8.8010625 11.552,8.2570625 11.328,7.7290625 C10.88,7.4570625 10.516,7.0850625 10.236,6.6130625 C9.956,6.1410625 9.816,5.6250625 9.816,5.0650625 C9.816,4.6490625 9.896,4.2570625 10.056,3.8890625 C10.216,3.5210625 10.432,3.1970625 10.704,2.9170625 C10.976,2.6370625 11.292,2.4170625 11.652,2.2570625 C12.012,2.0970625 12.4,2.0170625 12.816,2.0170625 Z" fill="#CCC" fill-rule="nonzero"/>
</svg>
