<svg xmlns="http://www.w3.org/2000/svg" viewBox="0 0 30 30" class="design-iconfont">
  <defs>
    <linearGradient x1="50%" y1="0%" x2="50%" y2="100%" id="cq6om8lng__9qh2am270a">
      <stop stop-color="#29B46C" offset="0%"/>
      <stop stop-color="#3F9368" offset="100%"/>
    </linearGradient>
    <linearGradient x1="50%" y1="0%" x2="50%" y2="100%" id="cq6om8lng__bgnj8yg3fb">
      <stop stop-color="#29B46C" offset="0%"/>
      <stop stop-color="#3F9368" offset="100%"/>
    </linearGradient>
  </defs>
  <g fill-rule="nonzero" fill="none">
    <path fill="url(#cq6om8lng__9qh2am270a)" opacity=".09683518" d="M15 0A15 15 0 1 0 15 30A15 15 0 1 0 15 0Z"/>
    <path d="M15,9 C18.3,9 21,10.3412698 21,12.0952381 C21,13.7460317 18.3,15.0873016 15,15.0873016 C11.7,15.0873016 9,13.7460317 9,12.0952381 C9,10.3412698 11.7,9 15,9 Z M20.7,18.0793651 C20.9,18.3888889 21,18.6984127 21,19.0079365 C21,20.6587302 18.3,22 15,22 C11.7,22 9,20.6587302 9,19.0079365 C9,18.6984127 9.1,18.3888889 9.3,18.0793651 C10.1,19.3174603 12.4,20.1428571 15,20.1428571 C17.7,20.1428571 20,19.3174603 20.7,18.0793651 Z M20.7,14.5714286 C20.9,14.8809524 21,15.1904762 21,15.5 C21,17.2539683 18.3,18.5952381 15,18.5952381 C11.7,18.5952381 9,17.2539683 9,15.5 C9,15.1904762 9.1,14.8809524 9.3,14.5714286 C10.1,15.8095238 12.4,16.6349206 15,16.6349206 C17.7,16.6349206 20,15.8095238 20.7,14.5714286 Z" fill="url(#cq6om8lng__bgnj8yg3fb)"/>
  </g>
</svg>
