<svg xmlns="http://www.w3.org/2000/svg" viewBox="0 0 26 21" class="design-iconfont">
  <defs>
    <linearGradient x1="50%" y1="0%" x2="50%" y2="100%" id="wuxv0m3zy__ofi6s2ryra">
      <stop stop-color="#29B46C" offset="0%"/>
      <stop stop-color="#3F9368" offset="100%"/>
    </linearGradient>
    <linearGradient x1="50%" y1="0%" x2="50%" y2="100%" id="wuxv0m3zy__30rv27udxb">
      <stop stop-color="#29B46C" offset="0%"/>
      <stop stop-color="#3F9368" offset="100%"/>
    </linearGradient>
  </defs>
  <g fill-rule="nonzero" fill="none">
    <path d="M20.3853211,8 C20.440367,8.35616438 20.4954128,8.71232877 20.4954128,9.06849315 C20.4954128,12.6894977 17.853211,15.7762557 14,17.2009132 C15.3211009,18.0913242 16.9724771,18.56621 18.8440367,18.56621 C19.6697248,18.56621 20.440367,18.4474886 21.2110092,18.2694064 L24.3486239,21 L24.3486239,16.6666667 C25.3944954,15.716895 26,14.5296804 26,13.2237443 C26,10.6712329 23.6330275,8.53424658 20.3853211,8 Z" fill="url(#wuxv0m3zy__ofi6s2ryra)"/>
    <path d="M20,8.66666667 C20,3.86666667 15.5,0 10,0 C4.5,0 0,3.86666667 0,8.66666667 C0,11.3333333 1.44444444,13.8666667 3.88888889,15.5333333 L3.88888889,21 L7.05555556,16.9333333 C8,17.2 9,17.3333333 10,17.3333333 C15.5,17.3333333 20,13.4 20,8.66666667 Z M6.11111111,4.66666667 L13.8888889,4.66666667 C14.2222222,4.66666667 14.4444444,4.93333333 14.4444444,5.33333333 C14.4444444,5.73333333 14.2222222,6 13.8888889,6 L6.11111111,6 C5.77777778,6 5.55555556,5.73333333 5.55555556,5.33333333 C5.55555556,4.93333333 5.77777778,4.66666667 6.11111111,4.66666667 Z M13.8888889,12.6666667 L6.11111111,12.6666667 C5.77777778,12.6666667 5.55555556,12.4 5.55555556,12 C5.55555556,11.6 5.77777778,11.3333333 6.11111111,11.3333333 L13.8888889,11.3333333 C14.2222222,11.3333333 14.4444444,11.6 14.4444444,12 C14.4444444,12.4 14.2222222,12.6666667 13.8888889,12.6666667 Z M15.5555556,9.33333333 L4.44444444,9.33333333 C4.11111111,9.33333333 3.88888889,9.06666667 3.88888889,8.66666667 C3.88888889,8.26666667 4.11111111,8 4.44444444,8 L15.5555556,8 C15.8888889,8 16.1111111,8.26666667 16.1111111,8.66666667 C16.1111111,9.06666667 15.8888889,9.33333333 15.5555556,9.33333333 Z" fill="url(#wuxv0m3zy__30rv27udxb)"/>
  </g>
</svg>
