<svg xmlns="http://www.w3.org/2000/svg" viewBox="0 0 18 22" class="design-iconfont">
  <defs>
    <linearGradient x1="50%" y1="0%" x2="50%" y2="100%" id="tojuwq6b3__vh2vfwc98a">
      <stop stop-color="#29B46C" offset="0%"/>
      <stop stop-color="#3F9368" offset="100%"/>
    </linearGradient>
  </defs>
  <path d="M144.563972,458.306892 C144.884787,457.954149 145.108211,457.496203 145.182686,456.98256 L140.817314,456.98256 C140.88606,457.496203 141.115213,457.954149 141.436028,458.306892 C141.837046,458.733896 142.387015,459 143,459 C143.612985,459 144.162954,458.733896 144.563972,458.306892 L144.563972,458.306892 Z M144.2317,439.320675 C144.162954,439.159775 144.071292,439.011252 143.956715,438.887482 C143.710376,438.621378 143.372374,438.460478 143,438.460478 C142.627626,438.460478 142.289624,438.621378 142.043285,438.887482 C141.928708,439.011252 141.831318,439.159775 141.7683,439.320675 C142.16359,439.240225 142.576066,439.196906 143,439.196906 C143.418205,439.196906 143.830681,439.240225 144.2317,439.320675 Z M140.301719,439.834318 C140.318905,439.060759 140.616805,438.367651 141.092298,437.854008 C141.579249,437.327989 142.255251,437 143,437 C143.744749,437 144.420751,437.327989 144.907702,437.854008 C145.383195,438.367651 145.681095,439.060759 145.698281,439.834318 C146.39147,440.18706 147.021642,440.663572 147.554424,441.2391 C148.728835,442.507736 149.450668,444.246695 149.450668,446.16512 L149.450668,453.139522 L136.543603,453.139522 L136.543603,446.16512 C136.543603,444.246695 137.271165,442.507736 138.439847,441.2391 C138.978358,440.663572 139.60853,440.18706 140.301719,439.834318 L140.301719,439.834318 Z M140.112667,456.252321 L145.881604,456.252321 L150.894335,456.252321 C151.197963,456.252321 151.472947,456.116174 151.673456,455.899578 C151.873966,455.682982 152,455.385935 152,455.057947 C152,454.729958 151.873966,454.432911 151.673456,454.216315 C151.478676,453.999719 151.197963,453.869761 150.894335,453.869761 L149.456397,453.869761 L149.238701,453.869761 C145.079567,453.869761 140.920433,453.869761 136.761299,453.869761 L136.537874,453.869761 L135.099936,453.869761 C134.802037,453.869761 134.521324,454.005907 134.326544,454.216315 C134.126034,454.432911 134,454.729958 134,455.057947 C134,455.385935 134.126034,455.682982 134.326544,455.899578 C134.521324,456.116174 134.802037,456.252321 135.099936,456.252321 L140.112667,456.252321 Z" transform="translate(-134 -437)" fill="url(#tojuwq6b3__vh2vfwc98a)" fill-rule="nonzero"/>
</svg>
