<svg xmlns="http://www.w3.org/2000/svg" viewBox="0 0 13 13" class="design-iconfont">
  <path d="M13,5.10724229 L13,1.85747445 L11.9384813,2.91736302 C10.7346397,1.09621797 8.69540598,0.000297931738 6.50999678,0 C2.91487535,0 0,2.90993498 0,6.5 C0,10.0900649 2.91487535,13 6.50999678,13 C9.16023916,13.0005271 11.546297,11.3969646 12.5434028,8.94521811 C12.6184045,8.7608631 12.5892053,8.55056059 12.4668045,8.39352952 C12.3444036,8.23649844 12.1473966,8.15659555 11.9499941,8.18391949 C11.7525917,8.21124343 11.5847838,8.34164304 11.5097822,8.52599806 C10.6832078,10.5574401 8.70605813,11.8860609 6.50999678,11.8857938 C3.53095604,11.8857938 1.11591974,9.47446601 1.11591974,6.5 C1.11591974,3.52553386 3.53095604,1.11420612 6.50999678,1.11420612 C8.43449337,1.11420612 10.1706785,2.1309192 11.1308344,3.72330544 L9.74523409,5.10724229 L13,5.10724229 Z" fill="#3F9368" fill-rule="evenodd" opacity=".60014053"/>
</svg>
