<svg xmlns="http://www.w3.org/2000/svg" viewBox="0 0 30 30" class="design-iconfont">
  <defs>
    <linearGradient x1="50%" y1="0%" x2="50%" y2="100%" id="n8ka2qq20__m9k59ymepa">
      <stop stop-color="#29B46C" offset="0%"/>
      <stop stop-color="#3F9368" offset="100%"/>
    </linearGradient>
    <filter id="n8ka2qq20__uzu514q2ib">
      <feColorMatrix in="SourceGraphic" values="0 0 0 0 0.247059 0 0 0 0 0.576471 0 0 0 0 0.407843 0 0 0 1.000000 0"/>
    </filter>
  </defs>
  <g fill="none" fill-rule="evenodd">
    <path fill="url(#n8ka2qq20__m9k59ymepa)" fill-rule="nonzero" opacity=".09683518" d="M15 0A15 15 0 1 0 15 30A15 15 0 1 0 15 0Z"/>
    <g filter="url(#n8ka2qq20__uzu514q2ib)">
      <g fill="#FFF" fill-rule="nonzero">
        <path d="M12.4106782,12.4481126 C12.4106782,12.5739584 12.3086493,12.6759766 12.1828035,12.6759766 L3.89323019,12.6759766 L3.89323019,14.764926 C3.893232,14.8220924 3.858796,14.8736304 3.80598077,14.8955062 C3.75316555,14.9173821 3.69237309,14.9052872 3.65195286,14.864862 L0.0828141888,11.2957206 C0.0297902139,11.2427163 -1.56319402e-14,11.1708153 -1.56319402e-14,11.095842 C-1.56319402e-14,11.0208686 0.0297902139,10.9489676 0.0828141888,10.8959633 L3.65195286,7.32680862 C3.69237275,7.28638367 3.75316456,7.27428867 3.80597954,7.29616382 C3.85879452,7.31803896 3.89323092,7.36957602 3.89323019,7.42674195 L3.89323019,9.51570728 L12.1828142,9.51570728 C12.30866,9.51570728 12.4106782,9.61772547 12.4106782,9.74357128 L12.4106782,12.4481126 Z" transform="translate(8 8)"/>
        <path d="M13.7838435,4.01032062 L10.2147155,7.57947528 C10.1742956,7.61990023 10.1135038,7.63199523 10.0606888,7.61012008 C10.0078739,7.58824494 9.97343745,7.53670788 9.97343819,7.47954195 L9.97343819,5.39057662 L1.68385419,5.39057662 C1.55800838,5.39057662 1.45599019,5.28855843 1.45599019,5.16271262 L1.45599019,2.45817928 C1.45599019,2.33233347 1.55800838,2.23031528 1.68385419,2.23031528 L9.97343819,2.23031528 L9.97343819,0.14134195 C9.97343638,0.0841755302 10.0078724,0.0326374916 10.0606876,0.0107616614 C10.1135028,-0.0111141688 10.1742953,0.000980662313 10.2147155,0.0414059501 L13.7838542,3.61056328 C13.8368782,3.66356758 13.8666684,3.73546864 13.8666684,3.81044195 C13.8666684,3.88541526 13.8368782,3.95731632 13.7838542,4.01032062 L13.7838435,4.01032062 Z" transform="translate(8 8)"/>
      </g>
    </g>
  </g>
</svg>
