<svg xmlns="http://www.w3.org/2000/svg" viewBox="0 0 30 30" class="design-iconfont">
  <defs>
    <linearGradient x1="50%" y1="0%" x2="50%" y2="100%" id="hnftsjkzu__wwuvo22vra">
      <stop stop-color="#29B46C" offset="0%"/>
      <stop stop-color="#3F9368" offset="100%"/>
    </linearGradient>
    <filter id="hnftsjkzu__9vzz4z88ib">
      <feColorMatrix in="SourceGraphic" values="0 0 0 0 0.247059 0 0 0 0 0.576471 0 0 0 0 0.407843 0 0 0 1.000000 0"/>
    </filter>
  </defs>
  <g fill="none" fill-rule="evenodd">
    <path fill="url(#hnftsjkzu__wwuvo22vra)" fill-rule="nonzero" opacity=".09683518" d="M15 0A15 15 0 1 0 15 30A15 15 0 1 0 15 0Z"/>
    <g filter="url(#hnftsjkzu__9vzz4z88ib)">
      <g fill="#FFF" fill-rule="nonzero">
        <path d="M16.686,0.054 L0.594,0.054 C0.306,0.054 0.09,0.288 0.09,0.558 L0.09,6.678 C0.09,6.966 0.324,7.182 0.594,7.182 L3.654,7.182 L3.654,5.022 L2.592,5.022 C2.376,5.022 2.196,4.842 2.196,4.626 L2.196,2.646 C2.196,2.43 2.376,2.25 2.592,2.25 L14.67,2.25 C14.886,2.25 15.066,2.43 15.066,2.646 L15.066,4.608 C15.066,4.824 14.886,5.004 14.67,5.004 L13.608,5.004 L13.608,7.2 L16.668,7.2 C16.956,7.2 17.172,6.966 17.172,6.696 L17.172,0.576 C17.19,0.288 16.956,0.054 16.686,0.054 Z" transform="translate(6 10)"/>
        <path d="M4.77,12.222 C4.77,12.798 5.238,13.266 5.814,13.266 L11.484,13.266 C12.06,13.266 12.528,12.798 12.528,12.222 L12.528,3.348 L4.788,3.348 L4.788,12.222 L4.77,12.222 Z M6.912,9.198 C7.11,9 7.416,9 7.614,9.198 L8.136,9.72 L8.136,5.688 C8.136,5.418 8.352,5.184 8.64,5.184 C8.928,5.184 9.144,5.4 9.144,5.688 L9.144,9.72 L9.666,9.198 C9.864,9 10.17,9 10.368,9.198 C10.566,9.396 10.566,9.702 10.368,9.9 L9,11.268 C8.91,11.358 8.784,11.412 8.64,11.412 C8.496,11.412 8.388,11.358 8.28,11.268 L6.912,9.9 C6.714,9.702 6.714,9.378 6.912,9.198 Z" transform="translate(6 10)"/>
      </g>
    </g>
  </g>
</svg>
