<svg xmlns="http://www.w3.org/2000/svg" viewBox="0 0 14 16" class="design-iconfont">
  <g fill="none" fill-rule="evenodd">
    <path d="M7.02360556,1.88471464 C6.85685,1.38858536 6.61107222,0.857177427 6.24983333,0.478098193 C5.64235,-0.159366064 4.65741111,-0.159366064 4.04992778,0.478098193 C3.44244444,1.11556245 3.44244444,2.14910254 4.04992778,2.7865668 C4.18627222,2.9296402 4.33237778,3.05524772 4.48357778,3.16563379 L1.16666667,3.16563379 C0.522336111,3.16563379 0,3.71372818 0,4.38987857 L0,5.61412335 C0,6.14715953 0.324648333,6.6006606 0.777777778,6.7687086 L0.777777778,13.3676736 C0.777777778,14.2691667 1.47422333,15 2.33333333,15 L11.6666667,15 C12.5257611,15 13.2222222,14.2691667 13.2222222,13.3676736 L13.2222222,6.7687086 C13.6753556,6.6006606 14,6.14715953 14,5.61412335 L14,4.38987857 C14,3.71372818 13.4776833,3.16563379 12.8333333,3.16563379 L9.56359444,3.16563379 C9.71483333,3.05524772 9.8609,2.9296402 9.99724444,2.7865668 C10.6047278,2.14910254 10.6047278,1.11556245 9.99724444,0.478098193 C9.38976111,-0.159366064 8.40486111,-0.159366064 7.79737778,0.478098193 C7.4361,0.857177427 7.19036111,1.38858536 7.02360556,1.88471464 Z M4.59989444,1.05521126 C4.29617222,1.37394339 4.29617222,1.89070936 4.59989444,2.20945781 C5.03086111,2.66165302 5.62072778,2.90617551 6.13044444,3.03480283 C6.27791111,3.07197906 6.4155,3.09870841 6.53609444,3.11784743 C6.50743333,2.96575543 6.46982778,2.78913771 6.42137222,2.60146099 C6.27141667,2.02023037 6.03617778,1.40813655 5.69986667,1.05521126 C5.39610556,0.736479135 4.90365556,0.736479135 4.59989444,1.05521126 Z M7.02360556,3.98212344 L6.61344444,3.98714285 L6.61398889,3.98179698 L6.02777778,3.98179698 L6.02777778,6.02220494 L7.97222222,6.02220494 L7.97222222,3.98179698 L7.43318333,3.98179698 L7.43376667,3.98714285 L7.02360556,3.98212344 Z M8.55555556,14.1838368 L11.6666667,14.1838368 C12.0962333,14.1838368 12.4444444,13.8184406 12.4444444,13.3676736 L12.4444444,6.83836813 L8.55555556,6.83836813 L8.55555556,14.1838368 Z M6.22222222,6.83836813 L6.22222222,14.1838368 L7.77777778,14.1838368 L7.77777778,6.83836813 L6.22222222,6.83836813 Z M5.44444444,14.1838368 L5.44444444,6.83836813 L1.55555556,6.83836813 L1.55555556,13.3676736 C1.55555556,13.8184406 1.90376667,14.1838368 2.33333333,14.1838368 L5.44444444,14.1838368 Z M8.75,3.98179698 L8.75,6.02220494 L12.8333333,6.02220494 C13.0481167,6.02220494 13.2222222,5.83950681 13.2222222,5.61412335 L13.2222222,4.38987857 C13.2222222,4.16449511 13.0481167,3.98179698 12.8333333,3.98179698 L8.75,3.98179698 Z M5.25,3.98179698 L5.25,6.02220494 L1.16666667,6.02220494 C0.951891111,6.02220494 0.777777778,5.83950681 0.777777778,5.61412335 L0.777777778,4.38987857 C0.777777778,4.16449511 0.951891111,3.98179698 1.16666667,3.98179698 L5.25,3.98179698 Z M9.44727778,2.20945781 C9.75103889,1.89070936 9.75103889,1.37394339 9.44727778,1.05521126 C9.14355556,0.736479135 8.65106667,0.736479135 8.34734444,1.05521126 C8.01099444,1.40813655 7.77579444,2.02023037 7.6258,2.60146099 C7.57738333,2.78913771 7.53973889,2.96575543 7.51111667,3.11784743 C7.63171111,3.09870841 7.76926111,3.07197906 7.91672778,3.03480283 C8.42644444,2.90617551 9.01631111,2.66165302 9.44727778,2.20945781 Z" fill="#494949" transform="translate(0 .5)"/>
    <path stroke="#3F9368" stroke-width=".8" d="M5.8 6.83836813L5.8 14.1838368" transform="translate(0 .5)"/>
    <path stroke="#3F9368" stroke-width=".8" d="M8.2 6.83836813L8.2 14.1838368" transform="translate(0 .5)"/>
  </g>
</svg>
