<svg xmlns="http://www.w3.org/2000/svg" viewBox="0 0 18 18" class="design-iconfont">
  <g fill-rule="nonzero" fill="none">
    <path d="M9.07122774,11 L3.92877226,11 C3.69119025,11 3.5,10.7754098 3.5,10.5 C3.5,10.2245902 3.69259606,10 3.92877226,10 L9.07122774,10 C9.30880975,10 9.5,10.2245902 9.5,10.5 C9.5,10.7754098 9.30880975,11 9.07122774,11 Z" fill="#3F9368" transform="translate(3 2)"/>
    <path d="M9.07122774,8 L3.92877226,8 C3.69119025,8 3.5,7.77540984 3.5,7.5 C3.5,7.22459016 3.69259606,7 3.92877226,7 L9.07122774,7 C9.30880975,7 9.5,7.22459016 9.5,7.5 C9.5,7.77540984 9.30880975,8 9.07122774,8 Z" fill="#3F9368" transform="translate(3 2)"/>
    <path d="M8.13984572,-3.55271368e-15 C8.36147341,-3.55271368e-15 8.54754064,0.155447513 8.60684488,0.36751335 C8.79671546,0.437239584 8.93303631,0.628259768 8.93303631,0.85199856 L8.93303631,3.58444364 C8.93303631,3.68023046 9.00804628,3.75585164 9.09582391,3.75585164 L11.6908498,3.75585164 C11.9099301,3.75585164 12.0942627,3.90774618 12.1557539,4.11607496 C12.3545137,4.17856724 12.5,4.37419648 12.5,4.60448926 L12.5,12.8051855 C12.5,13.4656104 11.9908897,14 11.3636787,14 L1.63472536,14 C1.0075143,14 0.5,13.4639299 0.5,12.8051855 L0.5,1.19481455 C0.5,0.534389629 1.00911025,-3.55271368e-15 1.63472536,-3.55271368e-15 L8.13984572,-3.55271368e-15 Z M7.959,1.025 L1.63472536,1.02508702 C1.54375582,1.02508702 1.47193776,1.1007082 1.47193776,1.19649502 L1.47193776,12.8068659 C1.47193776,12.9026527 1.54375582,12.9782739 1.63472536,12.9782739 L11.3636787,12.9782739 C11.4546482,12.9782739 11.5264663,12.9026527 11.5264663,12.8068659 L11.526,4.782 L9.09422796,4.78261913 C8.46701689,4.78261913 7.95950259,4.24486856 7.95950259,3.58780459 L7.959,1.025 Z" stroke="#FFF" stroke-width=".2" fill="#494949" transform="translate(3 2)"/>
    <path d="M11.9979193,5 C11.8777314,5 11.755897,4.95678631 11.6604052,4.86703481 L7.66456648,0.883065294 C7.45876514,0.695251962 7.44394745,0.376135505 7.63163826,0.16671533 C7.81932908,-0.0427048443 8.13379351,-0.0560013634 8.34124126,0.133474033 L12.3354335,4.11744355 C12.5412349,4.30525688 12.5560526,4.62437334 12.3683617,4.83379351 C12.2695771,4.94515186 12.132925,5 11.9979193,5 Z" fill="#494949" transform="translate(3 2)"/>
  </g>
</svg>
