<svg xmlns="http://www.w3.org/2000/svg" viewBox="0 0 18 18" class="design-iconfont">
  <g fill-rule="nonzero" fill="none">
    <path d="M6.70250295,15.943582 C7.92352569,15.4378625 9.05647465,14.7232164 10.0493063,13.8660317 C11.0501446,13.0010366 11.932884,11.9485933 12.4613266,10.7438484 C12.7335546,10.1209738 12.9137055,9.47662083 12.9737558,8.80102646 C13.0057826,8.43979826 12.9937726,8.07466488 12.9937726,7.71148409 C12.9937726,7.32682487 12.9937726,6.94021306 12.9937726,6.55555384 C12.9937726,5.53825711 12.9937726,4.52096038 12.9937726,3.50366366 C12.9937726,3.15805613 13.0077843,2.80854343 12.9937726,2.46293591 C12.9937726,2.45903074 12.9937726,2.45512557 12.9937726,2.4512204 C12.9937726,2.26963001 12.8676669,2.13099648 12.6995261,2.07437152 C12.006946,1.84006133 11.3123642,1.60575114 10.6197841,1.37144096 C9.52686866,1.00240241 8.43395323,0.631411283 7.34303947,0.262372739 C7.1008366,0.180364174 6.8606354,0.0866400988 6.61442918,0.0163470428 C6.49232691,-0.0187994852 6.40825649,0.00853670323 6.30216763,0.0436832312 C6.17806368,0.0866400988 6.05195805,0.127644381 5.9278541,0.170601249 C4.88097723,0.524019114 3.83610203,0.877436979 2.78922516,1.23085484 C1.97053943,1.5081219 1.15385537,1.78343637 0.335169629,2.06070342 C0.321157893,2.06460859 0.309147833,2.07046635 0.295136097,2.07437152 C0.126995261,2.13099648 0.000889634052,2.27158259 0.000889634052,2.4512204 C0.000889634052,2.72653487 0.000889634052,3.00184934 0.000889634052,3.27716381 C0.000889634052,4.2085468 0.000889634052,5.13992979 0.000889634052,6.07131279 C0.000889634052,6.83282089 -0.00111204257,7.594329 0.000889634052,8.35583711 C0.00289131067,9.0021427 0.118988555,9.65235347 0.339172982,10.26156 C0.789550222,11.517072 1.60823596,12.6202825 2.58305247,13.53995 C3.54585892,14.447902 4.67280286,15.2074575 5.88181554,15.7658968 C6.01792955,15.8283795 6.15804691,15.8889096 6.2961626,15.9474872 C6.40024978,15.990444 6.49032523,16.0177802 6.6044208,15.9865389 C6.69649792,15.9611553 6.79858343,15.8908622 6.84462199,15.806901 C6.93469744,15.6389787 6.90667397,15.3578065 6.70050127,15.2718928 C6.12401841,15.0336774 5.56955399,14.7486 5.03910968,14.4244709 C4.75687328,14.2526435 4.48264358,14.0691005 4.21642059,13.8757946 C4.18439377,13.8523636 4.15236694,13.8289326 4.12034011,13.8055015 C4.09031496,13.7820705 4.02826299,13.7488766 4.09431832,13.7859757 C4.01825461,13.7430188 3.9501976,13.6746783 3.8821406,13.6219586 C3.75403329,13.5204241 3.62792767,13.4149846 3.50382372,13.3075924 C3.25561581,13.092808 3.0174163,12.8682608 2.78922516,12.631998 C2.67713127,12.5148429 2.56703906,12.3957352 2.45894852,12.2727224 C2.40690493,12.2141448 2.35686301,12.1536147 2.3068211,12.0930846 C2.28280098,12.0637958 2.25677918,12.0325545 2.23275906,12.0032657 C2.22275068,11.9895976 2.20273391,11.9720243 2.19672888,11.9583562 C2.21474397,11.9993605 2.22675403,11.9974079 2.19672888,11.9564036 C1.9985629,11.700615 1.81240697,11.4350635 1.64626781,11.1577964 C1.56820243,11.0269732 1.49213871,10.8941975 1.42208003,10.7594691 C1.38805153,10.6930812 1.35402303,10.6247407 1.31999453,10.5564003 C1.30398111,10.5232063 1.2879677,10.4880598 1.27195429,10.4548659 C1.25994423,10.4294823 1.1938889,10.2986591 1.24393081,10.3943357 C1.17587381,10.2635125 1.12983525,10.1151161 1.08379668,9.97648256 C1.03175309,9.82613353 0.987716207,9.67578449 0.949684351,9.52348287 C0.911652495,9.37508642 0.881627346,9.22473738 0.85560555,9.07438835 C0.84960052,9.04314699 0.847598843,9.00995304 0.841593814,8.97871169 C0.86761561,9.08219869 0.841593814,8.97480652 0.83759046,8.94356516 C0.827582077,8.85960401 0.819575371,8.77759544 0.813570341,8.69363429 C0.787548545,8.32069058 0.801560281,7.94579428 0.801560281,7.57089798 C0.801560281,7.20185944 0.801560281,6.83477348 0.801560281,6.46573493 C0.801560281,5.46991664 0.801560281,4.47409835 0.801560281,3.47828005 C0.801560281,3.14243545 0.817573694,2.8007331 0.801560281,2.46488849 C0.801560281,2.46098332 0.801560281,2.45707815 0.801560281,2.45317298 C0.703478127,2.57813842 0.605395973,2.70505644 0.507313818,2.83002187 C1.19789225,2.59571168 1.88446733,2.36335408 2.57304409,2.12904389 C3.6679612,1.75805276 4.76287831,1.38901422 5.85779542,1.01802309 C6.108005,0.934061941 6.35821457,0.850100791 6.60642247,0.764187056 C6.53636379,0.764187056 6.46430343,0.764187056 6.39424475,0.764187056 C7.08081983,0.996544657 7.76939659,1.22890226 8.45597167,1.46125986 C9.55088878,1.83225099 10.6438042,2.20128953 11.7387213,2.57228066 C11.9889309,2.65624181 12.2371388,2.74020296 12.4873484,2.8261167 C12.3892662,2.70115127 12.2911841,2.57423325 12.1931019,2.44926782 C12.1931019,2.71872453 12.1931019,2.98622866 12.1931019,3.25568537 C12.1931019,4.16363735 12.1931019,5.07158932 12.1931019,5.98149388 C12.1931019,6.71957097 12.1931019,7.45960064 12.1931019,8.19767773 C12.1931019,8.36560003 12.1931019,8.53547492 12.1810919,8.70339722 C12.1750868,8.77759544 12.1690818,8.85179367 12.1610751,8.92599189 C12.1590734,8.93965999 12.14306,9.06072025 12.1530684,8.99823753 C12.1610751,8.94356516 12.1530684,8.9904272 12.1530684,9.0021427 C12.149065,9.02947889 12.1450617,9.05681508 12.1410583,9.08415127 C12.0910164,9.38680193 12.0149527,9.68359483 11.9148689,9.97257739 C11.8908487,10.0428705 11.8648269,10.1131635 11.8388052,10.1834566 C11.8247934,10.2186031 11.8107817,10.2537496 11.7967699,10.2869436 C11.7887632,10.3045168 11.7827582,10.3220901 11.7747515,10.3396634 C11.7707481,10.3513789 11.7387213,10.4255771 11.7627414,10.3709047 C11.7847599,10.3181849 11.7367196,10.4275297 11.7307146,10.4392452 C11.7147012,10.4743917 11.6986878,10.5075857 11.6826744,10.5407796 C11.6486459,10.6130252 11.6126157,10.6852709 11.5745838,10.7555639 C11.4284614,11.0347836 11.264324,11.3042403 11.0861747,11.5639341 C10.9920959,11.6986624 10.8940138,11.8314382 10.79393,11.9622614 C10.7819199,11.9778821 10.7498931,12.0227915 10.8019367,11.9524985 C10.7899266,11.9681192 10.7779165,11.9837398 10.7659065,11.9974079 C10.743888,12.0247441 10.7218696,12.0501277 10.7018528,12.0774639 C10.6478076,12.1418992 10.595764,12.2043819 10.539717,12.2688172 C10.3215343,12.5187481 10.0913415,12.7569634 9.85114027,12.9834633 C9.61294075,13.2080106 9.36473285,13.4227949 9.10651657,13.6278163 C9.04446459,13.6766309 8.98041094,13.7254456 8.91835897,13.7742602 C8.88232879,13.8015964 8.93837573,13.7605921 8.94037741,13.7586395 C8.92636567,13.770355 8.90835058,13.7820705 8.89233717,13.793786 C8.85230364,13.8230748 8.81227011,13.8523636 8.77223657,13.8816523 C8.64012592,13.977329 8.50601358,14.0710531 8.36989957,14.160872 C7.84345862,14.5103847 7.29099588,14.8227983 6.71451301,15.0883498 C6.578399,15.1508325 6.43828164,15.2113627 6.30016595,15.2699402 C6.10600332,15.3499962 6.04995637,15.6428839 6.15604523,15.8049485 C6.28415254,16.0002069 6.49633026,16.0294957 6.70250295,15.943582 Z" stroke="#494949" stroke-width=".1" fill="#494949" transform="translate(2.5 1)"/>
    <path d="M3.11362901,7.5848224 C3.75528347,8.25387221 4.39693793,8.92292203 5.04058511,9.59404964 C5.13225003,9.68962818 5.22391496,9.78520673 5.31557988,9.88078527 C5.46702627,10.0386976 5.72607932,10.0407754 5.87951843,9.88078527 C6.3318649,9.40912593 6.78620408,8.93538879 7.23855055,8.46372945 C7.95393549,7.71780124 8.67131315,6.96979524 9.38869081,6.22386703 C9.55408622,6.05141009 9.71948162,5.87895315 9.88487703,5.70649621 C10.032338,5.55273942 10.0442943,5.27015938 9.88487703,5.11848038 C9.72545977,4.96680139 9.47836302,4.95433462 9.32093848,5.11848038 C8.86859201,5.59013972 8.41425283,6.06387686 7.96190636,6.5355362 C7.2445287,7.2835422 6.52914375,8.02947041 5.81176609,8.77747642 C5.64637069,8.94993336 5.48097528,9.12239029 5.31557988,9.29484723 C5.50289516,9.29484723 5.69220315,9.29484723 5.87951843,9.29484723 C5.23786397,8.62579742 4.5962095,7.95674761 3.95256233,7.28562 C3.8608974,7.19004145 3.76923248,7.09446291 3.67756756,6.99888436 C3.53010659,6.84512757 3.25909726,6.83266081 3.11362901,6.99888436 C2.96816076,7.16303013 2.95620447,7.42067664 3.11362901,7.5848224 L3.11362901,7.5848224 Z" fill="#3F9368" transform="translate(2.5 1)"/>
  </g>
</svg>
