<svg xmlns="http://www.w3.org/2000/svg" viewBox="0 0 18 18" class="design-iconfont">
  <g fill-rule="nonzero" stroke-width=".2" fill="none">
    <path d="M7.71572278,14.4 C7.71557878,14.4 7.71572278,14.4 7.71557878,14.4 C6.18629878,14.4 4.23416278,13.397904 2.62107478,11.784744 C0.158386776,9.322704 -0.715405224,6.338376 0.631714776,4.990896 L1.17142678,4.45176 C1.28914678,4.3326 1.44812278,4.266504 1.61775478,4.266504 C1.78745878,4.266504 1.94629078,4.3326 2.06516278,4.45284 L3.71669878,6.10416 C3.83535478,6.22152 3.90137878,6.380136 3.90137878,6.549912 C3.90137878,6.719328 3.83557078,6.877944 3.71633878,6.996816 L3.17763478,7.536456 C3.01873078,7.695216 3.02593078,8.051976 3.19664278,8.491176 C3.39838678,9.009792 3.79373878,9.579672 4.31019478,10.095912 C5.05611478,10.84212 5.94329878,11.343384 6.51785878,11.343168 C6.67532278,11.343168 6.79369078,11.30472 6.86957878,11.228688 L7.40878678,10.689048 C7.52845078,10.570032 7.68699478,10.5048 7.85597878,10.5048 C8.02453078,10.5048 8.18285878,10.56996 8.30187478,10.688328 L9.95449078,12.341736 C10.0733628,12.46032 10.1390268,12.619152 10.1390268,12.788496 C10.1390268,12.957696 10.0734348,13.11624 9.95420278,13.235256 L9.41477878,13.774464 C9.00553078,14.18364 8.41808278,14.4 7.71572278,14.4 Z M1.61775478,4.766904 C1.58276278,4.766904 1.55021878,4.780368 1.52609878,4.804704 L0.985522776,5.344848 C-0.124933224,6.45552 0.786154776,9.24264 2.97488278,11.430936 C4.49768278,12.95352 6.31424278,13.8996 7.71557878,13.8996 C8.29057078,13.8996 8.74316278,13.738464 9.06097078,13.420728 L9.60068278,12.881088 C9.62530678,12.856536 9.63862678,12.823704 9.63862678,12.788568 C9.63862678,12.753144 9.62523478,12.720168 9.60097078,12.696048 L7.94849878,11.04264 C7.89989878,10.9944 7.81119478,10.9944 7.76223478,11.043288 L7.22360278,11.582568 C7.05281878,11.753496 6.80881078,11.84364 6.51800278,11.84364 L6.51778678,11.84364 C5.79742678,11.843856 4.81606678,11.309544 3.95638678,10.449792 C3.39219478,9.885528 2.95659478,9.254376 2.73029878,8.672544 C2.47815478,8.02404 2.51127478,7.49484 2.82382678,7.182648 L3.36289078,6.64272 C3.38765878,6.617952 3.40112278,6.585264 3.40112278,6.549984 C3.40112278,6.515064 3.38787478,6.482664 3.36397078,6.458976 L1.71049078,4.80564 C1.68529078,4.780368 1.65267478,4.766904 1.61775478,4.766904 Z" stroke="#494949" fill="#494949" transform="translate(1.502893 1.5)"/>
    <path d="M0.024984,9.557064 L0.024984,4.774032 C0.024984,2.141784 2.166624,0.000216 4.799088,0 C7.431552,0 9.57312,2.141712 9.57312,4.774248 C9.57312,7.406784 7.431552,9.548568 4.799088,9.548568 L4.799088,9.548568 C3.53448,9.548352 2.320344,9.0432 1.427976,8.153856 L0.024984,9.557064 Z M1.442448,7.431984 L1.618848,7.628328 C2.428992,8.530488 3.588336,9.048096 4.79916,9.048312 C7.155648,9.048312 9.072792,7.130952 9.072792,4.77432 C9.072792,2.417688 7.155576,0.5004 4.799088,0.5004 C2.442528,0.500616 0.525384,2.41776 0.525384,4.774032 L0.525384,8.348904 L1.442448,7.431984 Z" stroke="#494949" fill="#494949" transform="translate(6.324 1.5)"/>
    <path d="M4.799088,8.082648 L4.799088,8.082648 C2.974968,8.082432 1.490976,6.598152 1.490976,4.774032 C1.490976,2.950128 2.974968,1.466136 4.799088,1.46592 C6.623136,1.46592 8.107128,2.950056 8.107128,4.774248 C8.1072,6.598512 6.623136,8.082648 4.799088,8.082648 Z M4.799088,1.96632 C3.250872,1.966536 1.991304,3.226104 1.991304,4.774032 C1.991304,6.322176 3.250872,7.582032 4.79916,7.582176 C6.347232,7.582176 7.606728,6.322464 7.606728,4.774176 C7.606728,3.225888 6.347232,1.96632 4.799088,1.96632 Z" stroke="#494949" fill="#494949" transform="translate(6.324 1.5)"/>
    <g fill="#3F9368" stroke="#3F9368">
      <path d="M0.518 0.060048H1.518V1.060048H0.518z" transform="translate(8.852 5.964)"/>
      <path d="M2.020888 0.060048H3.020888V1.060048H2.020888z" transform="translate(8.852 5.964)"/>
      <path d="M3.518 0.060048H4.518V1.060048H3.518z" transform="translate(8.852 5.964)"/>
    </g>
  </g>
</svg>
