<svg xmlns="http://www.w3.org/2000/svg" viewBox="0 0 18 18" class="design-iconfont">
  <g fill-rule="nonzero" fill="none">
    <path d="M2,0 C0.90017168,0 0,0.90017168 0,2 L0,14 C0,15.0998288 0.90017168,16 2,16 L10.8,16 C11.8998288,16 12.8,15.0998288 12.8,14 L12.79888,5.14718344 C12.79776,5.09436664 12.75672,4.99270088 12.6828496,4.91718752 L7.8828496,0.11718752 C7.807808,0.04217296 7.70608,0 7.6,0 L2,0 Z M2,0.8 L7.2,0.8 L7.2,3.6 C7.2,4.69982944 8.1001704,5.6 9.2,5.6 L12,5.6 L12,14 C12,14.6674776 11.4674776,15.2 10.8,15.2 L2,15.2 C1.3325224,15.2 0.8,14.6674776 0.8,14 L0.8,2 C0.8,1.3325224 1.3325224,0.8 2,0.8 Z M8,1.36562496 L11.4343752,4.8 L9.2,4.8 C8.5325216,4.8 8,4.26747824 8,3.6 L8,1.36562496 Z" fill="#494949" transform="translate(2.5 1)"/>
    <path d="M6.4,6.4 C4.63743016,6.4 3.2,7.8374304 3.2,9.6 C3.2,11.3625696 4.63743016,12.8 6.4,12.8 C8.1625696,12.8 9.6,11.3625696 9.6,9.6 C9.6,9.3790952 9.4209048,9.2000224 9.2,9.2 L6.8,9.2 L6.8,6.8 C6.7999776,6.5790952 6.6209048,6.4 6.4,6.4 Z M6,7.3656248 L6,11.8343752 C4.8905144,11.6219384 4,10.7735232 4,9.6 C4,8.4264768 4.8905144,7.5780616 6,7.3656248 Z M6.8,10 L8.6343752,10 C8.450304,10.96134 7.76134,11.650304 6.8,11.8343752 L6.8,10 Z" fill="#3F9368" transform="translate(2.5 1)"/>
  </g>
</svg>
