<svg xmlns="http://www.w3.org/2000/svg" viewBox="0 0 18 18" class="design-iconfont">
  <g fill-rule="nonzero" fill="none">
    <path d="M11.5,1.77635684e-15 L1.5,1.77635684e-15 C0.671949835,0.000909355654 0.000909355568,0.671949899 0,1.5 L0,7.5 C0.000909355568,8.32805095 0.671949835,8.9990915 1.5,9 L11.5,9 C12.3280502,8.9990915 12.9990906,8.32805095 13,7.5 L13,1.5 C12.9990906,0.671949899 12.3280502,0.000909355654 11.5,1.77635684e-15 L11.5,1.77635684e-15 Z M12,7.50000009 C11.9997519,7.77604028 11.7760395,7.99975266 11.5,8.00000009 L1.5,8.00000009 C1.22396046,7.99975266 1.0002481,7.77604028 1,7.50000009 L1,1.50000009 C1.0002481,1.22396057 1.22396046,1.0002482 1.5,1.00000009 L11.5,1.00000009 C11.7760395,1.0002482 11.9997519,1.22396057 12,1.50000009 L12,7.50000009 Z M8.416,12.2226512 C8.56916387,12.4524041 8.50709004,12.7628181 8.27735,12.9160012 L6.77735,13.9160013 C6.75978385,13.9256913 6.74161306,13.9342423 6.72295,13.9416013 C6.70675146,13.9503796 6.69005668,13.9582094 6.67295,13.9650513 C6.56218468,14.0116496 6.43731532,14.0116496 6.32655,13.9650513 C6.30944332,13.9582094 6.29274854,13.9503796 6.27655,13.9416013 C6.25788694,13.9342423 6.23971615,13.9256913 6.22215,13.9160013 L4.72215,12.9160012 C4.49528042,12.7617252 4.43510204,12.4534535 4.58729337,12.2251802 C4.73948469,11.9969069 5.0471922,11.9339072 5.27685,12.0840011 L6,12.5656512 L6,10.0000009 C6,9.72385855 6.22385763,9.5000009 6.5,9.5000009 C6.77614237,9.5000009 7,9.72385855 7,10.0000009 L7,12.5656512 L7.72265,12.0840011 C7.95240289,11.9308373 8.26281685,11.9929111 8.416,12.2226512 Z M4,4.50000038 C4,4.77614283 3.77614237,5.00000038 3.5,5.00000038 L2.5,5.00000038 C2.22385763,5.00000038 2,4.77614283 2,4.50000038 C2,4.22385803 2.22385763,4.00000038 2.5,4.00000038 L3.5,4.00000038 C3.77614237,4.00000038 4,4.22385803 4,4.50000038 Z M11,4.50000038 C11,4.77614283 10.7761424,5.00000038 10.5,5.00000038 L9.5,5.00000038 C9.22385763,5.00000038 9,4.77614283 9,4.50000038 C9,4.22385803 9.22385763,4.00000038 9.5,4.00000038 L10.5,4.00000038 C10.7761424,4.00000038 11,4.22385803 11,4.50000038 Z" stroke="#FFF" stroke-width=".2" fill="#494949" transform="translate(2.5 2)"/>
    <path d="M6.5,2.50000024 C7.6040897,2.50115771 8.49884253,3.39591062 8.5,4.50000024 C8.5,5.60457003 7.6045695,6.50000024 6.5,6.50000024 C5.3954305,6.50000024 4.5,5.60457003 4.5,4.50000024 C4.5,3.39543082 5.3954305,2.50000024 6.5,2.50000024 Z M6.5,3.50000033 C5.94771525,3.50000033 5.5,3.94771562 5.5,4.50000033 C5.5,5.05228523 5.94771525,5.50000033 6.5,5.50000033 C7.05202204,5.49936679 7.49936627,5.05202251 7.5,4.50000033 C7.5,3.94771562 7.05228475,3.50000033 6.5,3.50000033 Z" fill="#3F9368" transform="translate(2.5 2)"/>
  </g>
</svg>
