<svg xmlns="http://www.w3.org/2000/svg" viewBox="0 0 26 34" class="design-iconfont">
  <path d="M106.54345,630 C111.152339,630 114.904765,633.76349 115.039693,638.458041 L115.04345,638.719789 L115,638.719 L115,639.257009 C115,640.049065 114.360008,640.693925 113.566139,640.693925 C112.775766,640.693925 112.132277,640.05257 112.132277,639.257009 L112.132277,638.436916 C112.132641,638.354511 112.139894,638.2737 112.15349,638.195043 C111.897555,635.247564 109.484255,632.938892 106.54345,632.938892 C103.50268,632.938892 101.025887,635.407184 100.912332,638.497984 L100.908265,638.719789 L100.867,638.719 L100.867,643.521 L117.697325,643.521055 C118.845437,643.565584 119.789882,644.42751 119.978288,645.548178 L120,645.709974 L120,662.065858 C119.826355,662.981108 119.149847,663.711998 118.272193,663.959359 L118.105349,664 L96.0543122,664 C95.0425621,663.85382 94.2314282,663.073181 94.0281768,662.069982 L94,661.900792 L94,645.957573 C94.0034061,644.665752 95.0008524,643.608733 96.2577955,643.526238 L96.4162118,643.521055 L98,643.521 L98,638.577103 C98.000627,638.43511 98.0217098,638.297847 98.0604478,638.168182 C98.3376399,633.609501 102.029835,630 106.54345,630 Z M107.616734,652 L105.383266,652 C104.617409,652 104,652.673171 104,653.5 C104,654.326829 104.620783,654.996341 105.383266,655 L105.383266,655 L107.616734,655 C108.382591,655 109,654.326829 109,653.5 C109,652.669512 108.379217,652 107.616734,652 L107.616734,652 Z" transform="translate(-94 -630)" fill="#3F9368" fill-rule="evenodd"/>
</svg>
