<?xml version="1.0" standalone="no"?><!DOCTYPE svg PUBLIC "-//W3C//DTD SVG 1.1//EN" "http://www.w3.org/Graphics/SVG/1.1/DTD/svg11.dtd"><svg t="1701692312611" class="icon" viewBox="0 0 1024 1024" version="1.1" xmlns="http://www.w3.org/2000/svg" p-id="6130" xmlns:xlink="http://www.w3.org/1999/xlink" width="16" height="16"><path d="M794.994503 604.881559c11.258371-17.911044 5.629185-41.451274-12.281859-52.709645-33.775112-20.981509-69.597201-37.869065-106.954523-50.150924 72.155922-49.63918 119.236382-132.541729 119.236382-226.702649 0-151.988006-123.330335-275.318341-275.318341-275.318341S244.869565 123.842079 244.869565 275.830085c0 94.16092 47.08046 177.063468 119.236382 226.702649-198.556722 65.503248-341.845077 252.801599-341.845077 472.851574 0 20.981509 17.3993 38.38081 38.380809 38.380809s38.38081-17.3993 38.38081-38.380809c0-232.331834 188.833583-421.165417 421.165417-421.165417 78.808596 0 155.570215 22.004998 222.608696 63.456271 17.3993 10.746627 40.93953 5.629185 52.197901-12.793603zM321.631184 275.830085c0-109.513243 89.043478-198.556722 198.556722-198.556722s198.556722 89.043478 198.556722 198.556722-89.043478 198.556722-198.556722 198.556722-198.556722-89.555222-198.556722-198.556722zM963.870065 804.973513h-93.137431V711.836082c0-20.981509-17.3993-38.38081-38.38081-38.38081s-38.38081 17.3993-38.38081 38.38081v93.137431h-93.137431c-20.981509 0-38.38081 17.3993-38.380809 38.38081s17.3993 38.38081 38.380809 38.380809h93.137431v93.137432c0 20.981509 17.3993 38.38081 38.38081 38.380809s38.38081-17.3993 38.38081-38.380809v-93.137432h93.137431c20.981509 0 38.38081-17.3993 38.38081-38.380809s-17.3993-38.38081-38.38081-38.38081z" fill="#A0A2A3" p-id="6131"></path></svg>