<?xml version="1.0" standalone="no"?><!DOCTYPE svg PUBLIC "-//W3C//DTD SVG 1.1//EN" "http://www.w3.org/Graphics/SVG/1.1/DTD/svg11.dtd"><svg t="1700488457213" class="icon" viewBox="0 0 1024 1024" version="1.1" xmlns="http://www.w3.org/2000/svg" p-id="27247" xmlns:xlink="http://www.w3.org/1999/xlink" width="16" height="16"><path d="M672.07168 0c-171.664906 0-311.382943 139.350943-311.382943 310.581132 0 45.645283 10.413887 88.633962 28.333886 127.758491l-341.880754 341.01132A28.884528 28.884528 0 0 0 38.650397 800.845283l6.781585 192.241509c0 0.483019 0.483019 0.966038 0.483019 1.449057 0.483019 4.588679 1.932075 8.69434 4.115321 12.316981 0.734189 0.966038 1.217208 1.932075 1.941735 2.898113 3.149283 3.864151 6.781585 7.245283 11.621434 8.935849l0.24151 0.24151c3.390792 1.449057 7.023094 1.932075 10.655396 1.932075h124.93766c16.229434 0 29.058415-13.041509 29.058415-28.981132v-112.543396l1.932076-1.932075h112.833207c16.229434 0 29.058415-13.041509 29.058416-28.981132v-112.543397l153.020377-152.633962c43.829132 23.426415 93.222642 38.158491 146.248453 38.158491 171.664906 0 311.373283-139.350943 311.373283-310.581132C983.435303 139.350943 843.736586 0 672.07168 0zM170.379303 962.898113h-25.416453l25.416453-25.35849v25.35849z m144.065207-143.456604h-25.416453l25.416453-25.35849v25.35849zM101.375227 924.256604L97.501416 811.471698l321.54566-320.966038c16.229434 22.460377 35.84 42.264151 57.141132 59.89434l-374.812981 373.856604z m570.696453-361.298113c-139.708377 0-253.024604-113.267925-253.024604-252.377359S532.604812 58.203774 672.07168 58.203774 925.086623 171.471698 925.086623 310.581132c0.241509 139.350943-113.316226 252.377358-253.024603 252.377359z" fill="#d1d1d1" p-id="27248"></path><path d="M723.329642 164.226415C670.78685 164.226415 627.933416 206.973585 627.933416 259.381132s42.853434 95.154717 95.396226 95.154717c52.552453 0 95.396226-42.74717 95.396227-95.154717S775.872435 164.226415 723.329642 164.226415z m0 131.864151c-20.335094 0-37.047547-16.664151-37.047547-36.950943S702.994548 222.188679 723.329642 222.188679c20.344755 0 37.047547 16.664151 37.047547 36.950944a36.999245 36.999245 0 0 1-37.047547 36.950943z" fill="#d1d1d1" p-id="27249"></path></svg>