<svg xmlns="http://www.w3.org/2000/svg" xmlns:xlink="http://www.w3.org/1999/xlink" viewBox="0 0 38 34" class="design-iconfont">
  <defs>
    <linearGradient x1="63.8606175%" y1="3.03569077%" x2="39.4968338%" y2="95.8815289%" id="pia55euom__16je2fxvxe">
      <stop stop-color="#20D2EA" offset="0%"/>
      <stop stop-color="#07E32F" offset="100%"/>
    </linearGradient>
    <linearGradient x1="63.3274078%" y1="0%" x2="39.6817523%" y2="100%" id="pia55euom__s8d52lfh6d">
      <stop stop-color="#25BBC5" offset="0%"/>
      <stop stop-color="#19C045" offset="100%"/>
    </linearGradient>
    <filter x="-56.2%" y="-56.2%" width="212.5%" height="212.5%" filterUnits="objectBoundingBox" id="pia55euom__e36ytko85b">
      <feGaussianBlur stdDeviation="3.24" in="SourceGraphic"/>
    </filter>
    <path d="M14.1094805,1.91846539e-15 C18.8812208,1.91846539e-15 22.7494805,3.86825976 22.7494805,8.64 C22.7494805,10.7858686 21.9671896,12.7490233 20.6722398,14.2598323 C26.0413179,16.5642927 29.16,21.581964 29.16,26.4015345 C29.16,32.94 22.1617922,33.577209 14.1094805,33.577209 C6.05716889,33.577209 0,32.94 0,26.4015345 C0,21.6186656 2.56782596,16.6407015 7.59107409,14.3123217 C6.27012925,12.7948001 5.46948054,10.8109008 5.46948054,8.64 C5.46948054,3.86825976 9.33774031,1.91846539e-15 14.1094805,1.91846539e-15 Z" id="pia55euom__wjg59fes8a"/>
  </defs>
  <g fill="none" fill-rule="evenodd">
    <g transform="translate(7.366044)">
      <mask id="pia55euom__ort2tjsmoc" fill="#fff">
        <use xlink:href="#pia55euom__wjg59fes8a"/>
      </mask>
      <path stroke="#63E0A9" stroke-width=".756" d="M14.1094805,0.378 C16.3909688,0.378 18.4564688,1.30275585 19.9515968,2.79788377 C21.4467247,4.2930117 22.3714805,6.3585117 22.3714805,8.64 C22.3714805,10.69192 21.6235043,12.5691597 20.3852381,14.0138363 C20.2702843,14.1479521 20.1510001,14.2784624 20.0280322,14.4052531 C20.1934192,14.4692149 20.3584862,14.536513 20.523151,14.6071887 C23.0659105,15.6985658 25.0909178,17.4143065 26.4997273,19.429602 C27.9814619,21.5492167 28.782,24.0002042 28.782,26.4015345 C28.782,27.6953171 28.4960886,28.7456167 27.9646812,29.5947822 C27.3912583,30.5110868 26.5349121,31.1896877 25.4694904,31.6976516 C22.7046517,33.0158508 18.568543,33.199209 14.1094805,33.199209 C9.71167711,33.199209 5.9125958,33.023367 3.40724723,31.749219 C2.42389628,31.2491151 1.64653943,30.5765446 1.12773388,29.6651397 C0.636508008,28.8021851 0.378,27.7295319 0.378,26.4015345 C0.378,23.9783102 1.05581049,21.5035061 2.39633498,19.3686454 C3.62630678,17.409846 5.41488816,15.7376618 7.75003831,14.6552712 C7.90938267,14.5814118 8.06917786,14.5112694 8.22883927,14.4445993 C8.10727979,14.3214078 7.98967443,14.1945152 7.87618834,14.0641406 C6.6130388,12.6130151 5.84748054,10.7159024 5.84748054,8.64 C5.84748054,6.3585117 6.77223639,4.2930117 8.26736432,2.79788377 C9.76249224,1.30275585 11.8279922,0.378 14.1094805,0.378 Z"/>
      <path fill="#0FEC7F" filter="url(#pia55euom__e36ytko85b)" mask="url(#pia55euom__ort2tjsmoc)" d="M6.48 6.479999999999999A8.64 8.64 0 1 0 6.48 23.759999999999998A8.64 8.64 0 1 0 6.48 6.479999999999999Z"/>
    </g>
    <path d="M10.5669393,4.88444865 C9.7299325,9.32560366 10.1117974,12.4199184 11.7125339,14.1673928 C9.62393583,14.9274263 4.53404459,20.4245638 4.53404459,24.6587002 C3.47905514,24.4578595 -0.595741259,24.5501659 0.0738784168,20.3750829 C0.743498092,16.2 4.10554742,14.4067879 4.53404459,14.1673928 C4.96254177,13.9279978 4.96254177,13.6190172 4.86305171,13.2901074 C4.49734721,12.0811043 3.8924453,12.0811043 3.59710619,10.2558134 C3.37116263,8.85940939 3.8924453,7.02997806 4.53404459,6.12546063 C5.75996794,4.39717158 7.77093285,3.98350092 10.5669393,4.88444865 Z" stroke="url(#pia55euom__s8d52lfh6d)" stroke-width=".756" fill="url(#pia55euom__16je2fxvxe)" stroke-linejoin="round" transform="translate(1)"/>
    <path d="M17.8840711,10.2935278 C18.5035983,9.56047958 22.4602983,9.49781029 23.1327897,10.2935278 C23.8052811,11.0892452 22.7256737,13.3987697 20.5084304,13.3987697 C18.2911871,13.3987697 17.2645439,11.0265759 17.8840711,10.2935278 Z" stroke="#6FEAB3" stroke-width="1.08" fill="#FFF" transform="translate(1)"/>
  </g>
</svg>
