<svg xmlns="http://www.w3.org/2000/svg" xmlns:xlink="http://www.w3.org/1999/xlink" viewBox="0 0 45 32" class="design-iconfont">
  <defs>
    <linearGradient x1="76.4830221%" y1="3.03569077%" x2="29.9319487%" y2="95.8815289%" id="mflyxujlx__0a4rkmuifa">
      <stop stop-color="#506EFC" offset="0%"/>
      <stop stop-color="#07B8E3" offset="100%"/>
    </linearGradient>
    <linearGradient x1="75.4642361%" y1="0%" x2="30.2852664%" y2="100%" id="mflyxujlx__2ojxuhnx8b">
      <stop stop-color="#8195EB" offset="0%"/>
      <stop stop-color="#4365FC" offset="100%"/>
    </linearGradient>
    <filter x="-56.2%" y="-56.2%" width="212.5%" height="212.5%" filterUnits="objectBoundingBox" id="mflyxujlx__qupy8gyfld">
      <feGaussianBlur stdDeviation="3.24" in="SourceGraphic"/>
    </filter>
    <path d="M28.1732788,6.2559215 L26.4143926,6.2559215 C26.5981714,5.75716126 26.6933772,5.22677328 26.6952232,4.69142419 C26.6828381,2.80615899 25.6059202,1.11171346 23.9608203,0.38905657 C22.2766991,-0.375572442 20.3233715,0.00708136187 19.0093341,1.35904491 L14.8707784,5.63012258 L10.7322227,1.35904491 C9.41818532,0.00708136187 7.46485765,-0.375572442 5.78073644,0.38905657 C4.13563655,1.11171346 3.05871865,2.80615899 3.04633358,4.69142419 C3.04817956,5.22677328 3.14338532,5.75716126 3.32716415,6.2559215 L1.56827798,6.2559215 C0.751970417,6.2559215 0.0902223847,6.95637081 0.0902223847,7.82041882 L0.0902223847,29.7233812 C0.0902223847,30.5874292 0.751970417,31.2878785 1.56827798,31.2878785 L28.1732788,31.2878785 C28.9895864,31.2878785 29.6513344,30.5874292 29.6513344,29.7233812 L29.6513344,7.82041882 C29.6513344,6.95637081 28.9895864,6.2559215 28.1732788,6.2559215 Z M6.00244363,4.69142419 C6.01133468,4.06554732 6.3718093,3.50552099 6.91883926,3.26773163 C7.13081508,3.17909622 7.35608731,3.13140684 7.58396428,3.12689702 C7.9914053,3.12426482 8.38181297,3.29975032 8.66294486,3.61192104 L11.2347616,6.2559215 L7.55440316,6.2559215 C7.14975794,6.27736417 6.75453647,6.12204926 6.46115054,5.82629294 C6.16776461,5.53053663 6.00193801,5.12027051 6.00244363,4.69142419 L6.00244363,4.69142419 Z M20.7830008,19.6793085 C20.5579977,20.0193033 20.2949638,20.3292391 19.9996313,20.6023619 L15.949759,24.9047295 C15.6722295,25.2009086 15.2944446,25.3675052 14.9003395,25.3675052 C14.5062344,25.3675052 14.1284495,25.2009086 13.85092,24.9047295 L9.7271449,20.5710719 C9.44912279,20.2992119 9.20118941,19.9947892 8.9881171,19.6636635 C7.57526949,17.6475744 7.83736854,14.8259338 9.59411989,13.1397097 C11.1420375,11.8833275 13.2838483,11.8452255 14.8707784,13.0458399 C16.4544771,11.8406444 18.5962468,11.8723955 20.1474369,13.1240647 C21.9177509,14.8124266 22.1924355,17.6455394 20.7830008,19.6793085 Z M22.2610564,6.2559215 L18.5067952,6.2559215 L21.0786119,3.61192104 C21.5387155,3.13033047 22.2295708,2.99399406 22.8227175,3.26773163 C23.3697475,3.50552099 23.7302221,4.06554732 23.739112,4.69142419 C23.739112,5.5554722 23.077364,6.2559215 22.2610564,6.2559215 Z" id="mflyxujlx__fnv2wwdphc"/>
  </defs>
  <g fill="none" fill-rule="evenodd">
    <path d="M10.5042993,5.15525645 L11.4241935,3.42518712 C11.6711699,2.96069202 12.1130566,2.23745962 12.5388505,2.25944076 C12.9646445,2.2814219 13.5657752,2.24799844 13.9238328,2.30866809 C14.4373617,2.39568097 13.9161362,0.969250984 13.3560548,0.722503132 C12.4352097,0.303201729 11.3671678,0.513038492 10.6486775,1.25441791 L8.38579493,3.59655878 L6.12291241,1.25441791 C5.40442208,0.513038492 4.33638014,0.303201729 3.41553511,0.722503132 C2.51602617,1.11878818 1.92718821,2.04797525 1.9204163,3.08180255 C1.92142564,3.37537318 1.97348232,3.66622328 2.07396904,3.93972961 L1.11224397,3.93972961 C0.665902715,3.93972961 0.304071639,4.32383663 0.304071639,4.79765667 L0.304071639,16.8086355 C0.304071639,17.2824555 0.665902715,17.6665626 1.11224397,17.6665626 C2.0427323,17.7242482 2.74059856,17.7675124 3.20584272,17.7963553 C3.34538714,17.7648391 3.72800618,17.8570719 3.98208846,17.3497934 C4.15147664,17.0116078 4.50530432,16.3461547 5.04357151,15.3534342 C5.34385832,14.7539078 6.03792145,13.5802915 6.25383788,13.1492117 L9.57296357,7.0146798 C9.89175565,6.37820744 10.1506652,5.86129138 10.5042993,5.15525645 Z M3.75385864,3.10444134 C3.75826495,2.75887394 3.93691226,2.44966481 4.20801437,2.31837341 C4.31306729,2.26943486 4.42470976,2.24310396 4.53764311,2.24061394 C4.73956646,2.23916062 4.93304826,2.33605199 5.07237418,2.50841181 L6.34693864,3.96825225 L4.52299294,3.96825225 C4.32245516,3.98009146 4.12658769,3.89433694 3.98118881,3.73104006 C3.83578993,3.56774318 3.75360806,3.34122163 3.75385864,3.10444134 L3.75385864,3.10444134 Z" transform="rotate(-28 18.60703688 3.43414297)" fill="url(#mflyxujlx__0a4rkmuifa)" stroke="url(#mflyxujlx__2ojxuhnx8b)" stroke-linejoin="round" stroke-width=".5"/>
    <path d="M16.8186588,16.1964111 C16.5373013,16.5834615 16.1201774,16.8069172 15.680556,16.8060991 L15.680556,16.8060991 C15.2409346,16.8069172 14.8238107,16.5834615 14.5424532,16.1964111 C14.1812851,15.6780857 13.6426372,15.3633184 13.0643976,15.3326864 C12.7934461,15.3213137 12.527314,15.4169805 12.3105892,15.6036589 C11.7931257,16.3276044 11.7931257,17.3692727 12.3105892,18.0932182 C12.3999931,18.2571006 12.5095052,18.4053958 12.6357615,18.5335485 L15.680556,22.1239334 L18.7253505,18.6182273 L18.8140339,18.5335485 C18.9367401,18.4077434 19.0459029,18.2656066 19.1392061,18.110154 C19.6612909,17.375371 19.6612909,16.3215062 19.1392061,15.5867231 C18.3428552,15.0848077 17.3446003,15.3470838 16.8186588,16.1964111 L16.8186588,16.1964111 Z" fill="#C0CBFF" fill-rule="nonzero" transform="translate(13.296266)"/>
    <g transform="translate(14.106044)">
      <mask id="mflyxujlx__gtfcp5kzfe" fill="#fff">
        <use xlink:href="#mflyxujlx__fnv2wwdphc"/>
      </mask>
      <path stroke="#9EB0FF" stroke-width=".68975928" d="M23.8221149,0.704814022 C24.5816992,1.038483 25.2093811,1.59719772 25.6492219,2.28925269 C26.0919884,2.98591091 26.3445964,3.81772778 26.3503456,4.69023499 C26.348339,5.27216699 26.227117,5.84778353 25.993623,6.37696769 L25.8867006,6.60080114 L28.1732788,6.60080114 C28.4840604,6.60080114 28.7644106,6.73578691 28.9677279,6.95099484 C29.1479088,7.14171341 29.2680687,7.39509221 29.2987229,7.67715461 L29.3064547,7.82041882 L29.3064547,29.7233812 C29.3064547,30.0625077 29.177939,30.3703002 28.9677279,30.5928052 C28.7934559,30.7772691 28.5625883,30.9027944 28.3044719,30.9348941 L28.1732788,30.9429989 L1.56827798,30.9429989 C1.2574964,30.9429989 0.97714615,30.8080131 0.773828899,30.5928052 C0.593647925,30.4020866 0.47348806,30.1487078 0.442833833,29.8666454 L0.435102025,29.7233812 L0.435102025,7.82041882 C0.435102025,7.48129237 0.563617762,7.17349984 0.773828899,6.95099484 C0.948100829,6.7665309 1.17896843,6.64100569 1.43708489,6.60890592 L1.56827798,6.60080114 L3.85492874,6.60080114 C3.55153212,6.01262938 3.39350647,5.35416517 3.39120578,4.69368979 C3.39696033,3.81772778 3.64956833,2.98591091 4.09233483,2.28925269 C4.53217569,1.59719772 5.15985761,1.038483 5.92331255,0.703085262 C6.69808407,0.35132152 7.53477717,0.263196029 8.32895985,0.418775161 C9.04579708,0.559202443 9.72764464,0.898006172 10.2984809,1.41874391 L10.4845438,1.5990389 L14.8707784,6.12572651 L19.256645,1.5994181 C19.8628224,0.975744981 20.6161111,0.574805474 21.4125969,0.418775161 C22.2067796,0.263196029 23.0434727,0.35132152 23.8221149,0.704814022 Z M17.5264106,11.8187863 C16.6046613,11.8051216 15.6789025,12.0716253 14.8703343,12.6213835 C14.0601029,12.074008 13.1335192,11.8101769 12.2116851,11.826576 C11.2099265,11.8443969 10.213035,12.1931768 9.35529872,12.8908997 C8.41617444,13.7923215 7.87516623,14.9967612 7.75911756,16.2460891 C7.64352684,17.4904868 7.94971124,18.7783625 8.6997548,19.8531081 C8.92664276,20.2050109 9.19040149,20.5285836 9.48602614,20.817656 L9.48602614,20.817656 L13.6010783,25.1424712 L13.7197094,25.2582207 C14.0477802,25.5506981 14.4664782,25.7123848 14.9003395,25.7123848 C15.3884335,25.7123848 15.8573364,25.5077501 16.2014202,25.1405442 L16.2014202,25.1405442 L20.2427027,20.8473034 L20.4701416,20.6229075 C20.691043,20.3915137 20.8920483,20.1394504 21.0706045,19.86964 C21.8186797,18.7903301 22.1223637,17.491717 22.0008946,16.2388772 C21.8792585,14.9843156 21.33147,13.776708 20.3640103,12.8556659 C19.5259669,12.1794411 18.5281857,11.8336373 17.5264106,11.8187863 Z M7.58173629,2.78202458 C7.30603185,2.7874503 7.03799609,2.84409226 6.78579412,2.94954779 C6.44497464,3.09766229 6.16523782,3.34226463 5.96884213,3.64738076 C5.77539472,3.9479165 5.66298814,4.30714679 5.65759878,4.6865254 C5.65694968,5.21225293 5.86002388,5.71001726 6.2163046,6.06917652 C6.53780677,6.39327624 6.95821176,6.57993114 7.39754986,6.60080133 L7.39754986,6.60080133 L12.0513474,6.60080114 L8.91016289,3.3714523 L8.79181627,3.25176314 C8.46281026,2.94899661 8.03014698,2.7791277 7.58173629,2.78202458 Z M22.9602058,2.95144232 C22.6026747,2.78634681 22.208088,2.74440038 21.8340013,2.81822428 C21.4622822,2.89158095 21.1103393,3.07945998 20.8292457,3.37368071 L20.8292457,3.37368071 L17.690205,6.60080114 L22.2610564,6.60080114 L22.4277199,6.59293832 C22.8669423,6.55129386 23.2621081,6.34655906 23.5568936,6.03453353 C23.8816333,5.69080188 24.0839916,5.21634574 24.0839916,4.69142419 C24.0785682,4.30714735 23.966162,3.94791698 23.7727147,3.64738114 C23.5763192,3.34226484 23.2965823,3.09766235 22.9602058,2.95144232 Z"/>
      <path fill="#07B8E3" opacity=".39616058" filter="url(#mflyxujlx__qupy8gyfld)" mask="url(#mflyxujlx__gtfcp5kzfe)" d="M2.34 4.68A8.64 8.64 0 1 0 2.34 21.96A8.64 8.64 0 1 0 2.34 4.68Z"/>
    </g>
  </g>
</svg>
