<svg xmlns="http://www.w3.org/2000/svg" viewBox="0 0 19 21" class="design-iconfont">
  <path d="M20.2221387,61.25 C20.2221387,64.1494949 22.5850218,66.5 25.4997857,66.5 C28.4145496,66.5 30.7774326,64.1494949 30.7774326,61.25 C30.7774326,58.3505051 28.4145496,56 25.4997857,56 C24.1000667,56 22.7576765,56.5531234 21.7679257,57.5376894 C20.7781749,58.5222554 20.2221387,59.8576134 20.2221387,61.25 Z M30.3129997,67.655 L29.8802326,67.655 C29.7007144,67.65942 29.5242797,67.7024021 29.3630232,67.781 C29.3630232,67.781 29.0146985,67.9805 28.6980397,68.117 C27.6948308,68.5334163 26.6184941,68.747556 25.5314515,68.747 C24.443734,68.7544675 23.3660231,68.5400545 22.3648634,68.117 C22.0482046,67.9805 21.6893246,67.781 21.6893246,67.781 C21.5305795,67.6957201 21.35251,67.6523397 21.1721152,67.655 L20.7182375,67.655 C18.8618511,67.992103 17.3148997,69.2645352 16.6333388,71.015 C16.2131967,72.0675448 15.998267,73.190015 16.0000105,74.3225 C16.0370878,74.6573109 16.2333764,74.9541066 16.5277859,75.1205 C16.5277859,75.1205 19.4832682,77 25.4997857,77 C31.5163032,77 34.4717855,75.1205 34.4717855,75.1205 C34.7690254,74.9520054 34.9657378,74.6506553 34.9995501,74.312 C35.0110204,73.1976498 34.8030388,72.0918475 34.3873431,71.057 C33.7334111,69.2755504 32.1858956,67.9674517 30.3129997,67.613 L30.3129997,67.655 Z" transform="translate(-16 -56)" fill="#FFF" fill-rule="nonzero"/>
</svg>
