<svg xmlns="http://www.w3.org/2000/svg" xmlns:xlink="http://www.w3.org/1999/xlink" viewBox="0 0 57 34" class="design-iconfont">
  <defs>
    <linearGradient x1="66.3749847%" y1="13.7895863%" x2="40.1683858%" y2="112.815041%" id="iwwregt2v__8lm113equa">
      <stop stop-color="#FFB03B" offset="0%"/>
      <stop stop-color="#FFF73F" offset="100%"/>
    </linearGradient>
    <filter x="-56.2%" y="-56.2%" width="212.5%" height="212.5%" filterUnits="objectBoundingBox" id="iwwregt2v__dfhyngt2oc">
      <feGaussianBlur stdDeviation="3.24" in="SourceGraphic"/>
    </filter>
    <path d="M19.5002261,0 C21.7292766,0 23.4004275,1.69430341 23.4004275,3.9530691 C23.4004275,5.4592323 22.4720195,6.96481224 21.1718701,7.52960782 L21.1718701,7.52960782 L25.2576545,15.9997917 L31.5720373,13.5529691 C31.3860844,12.9881319 31.2004193,12.6119764 31.2004193,12.0471809 C31.2004193,9.9766387 32.8720633,8.09411177 35.0997986,8.09411177 C37.3288492,8.09411177 39,9.78841517 39,12.0471809 C39,14.117723 37.3283559,16.00025 35.0997986,16.00025 L35.0997986,16.00025 L34.3570147,16.00025 L32.4996643,28.6117681 C32.1281696,30.682227 30.4568132,32 28.5994629,32 L28.5994629,32 L10.3996328,32 C8.54302234,32 6.87133716,30.6821437 6.68567201,28.6117681 L6.68567201,28.6117681 L4.64298535,16.00025 L4.64298535,16.00025 L3.90020141,16.00025 C1.67115083,16.00025 0,14.3059466 0,12.0471809 C0,9.9766387 1.67164407,8.09411177 3.90020141,8.09411177 C6.12925199,8.09411177 7.80040282,9.78841517 7.80040282,12.0471809 C7.80040282,12.6120181 7.61444993,13.1763137 7.42878478,13.5529691 L7.42878478,13.5529691 L13.5571325,15.9997917 L17.828582,7.52960782 C16.5283916,6.96477058 15.6000247,5.45885735 15.6000247,3.9530691 C15.6000247,1.88252694 17.2716687,0 19.5002261,0 Z M25.5,26 L14.5,26 C13.6715729,26 13,26.6715729 13,27.5 C13,28.3284271 13.6715729,29 14.5,29 L14.5,29 L25.5,29 C26.3284271,29 27,28.3284271 27,27.5 C27,26.6715729 26.3284271,26 25.5,26 L25.5,26 Z" id="iwwregt2v__x3ywecs4rb"/>
  </defs>
  <g fill="none" fill-rule="evenodd">
    <path d="M16.5032184,11.3998006 C16.9270463,10.9908296 17.4827698,10.625436 18.1703889,10.3036196 C18.7510576,10.1313078 19.624431,9.73023598 20.2069517,9.78170124 C20.3891718,9.79780025 20.1708769,8.93535339 20.1151638,8.71060997 C19.8214954,7.52596779 18.7972654,6.703008 17.5001565,6.703008 C15.9573091,6.703008 14.8000171,7.99724527 14.8000171,9.420743 C14.8000171,9.92149353 14.9503965,10.4222642 15.2075487,10.8498215 C14.9618371,11.0135066 14.7675822,11.2395358 14.5669442,11.4705488 C14.4916648,11.557225 14.2459669,11.9394246 14.1979615,12.0525182 C13.8612978,12.6703431 13.6690007,13.1233666 13.6210702,13.4115889 C13.5428855,13.8817394 13.4385643,14.4865496 13.5404375,15.1712441 C13.6172416,15.6874482 13.6935064,16.1612563 13.7055077,16.5164718 C13.706903,16.55777 13.6783697,16.9925721 13.6717492,17.0289919 C13.6293723,17.2621086 13.534025,17.4867328 13.3857071,17.7028648 L9.14300484,16.0206743 C9.27154226,15.7617237 9.40027887,15.3737704 9.40027887,14.9854448 C9.40027887,13.4325434 8.2433283,12.2677098 6.70013944,12.2677098 C5.15729205,12.2677098 4,13.5619471 4,14.9854448 C4,16.5383463 5.15695057,17.7031798 6.70013944,17.7031798 C6.82867685,17.7031798 6.95741346,17.7031798 7.21437447,17.7031798 L8.62854216,26.3735986 C8.75707958,27.7969818 9.91440008,28.703008 11.1997458,28.703008 C12.3537499,28.703008 13.219253,28.703008 13.7962551,28.703008 C14.3935853,28.7001477 15.5815915,28.8774166 15.7381421,28.4201292 C15.9395771,27.8317333 16.2763558,26.5332963 16.7484779,24.5248182 C16.8762552,23.6766492 17.467146,21.6087665 17.6818196,20.346576 C16.6880178,19.6447821 16.0063797,18.9458284 15.6369055,18.2497149 C15.0826941,17.2055446 15.0621496,16.5025889 15.0140564,16.136148 C14.8985854,15.2563289 14.9435028,14.4659182 15.2325564,13.3519604 C15.4634954,12.4619654 15.8674766,12.0132571 16.5032184,11.3998006 Z" stroke="#FEA70A" stroke-width=".7" fill="url(#iwwregt2v__8lm113equa)" fill-rule="nonzero" transform="rotate(-23 15.09667352 15.76116148)"/>
    <g transform="translate(16.140473 1)">
      <mask id="iwwregt2v__5r04wl6qyd" fill="#fff">
        <use xlink:href="#iwwregt2v__x3ywecs4rb"/>
      </mask>
      <use stroke="#FEA70A" fill="#FFCF79" fill-rule="nonzero" xlink:href="#iwwregt2v__x3ywecs4rb"/>
      <path fill="#FFD63D" filter="url(#iwwregt2v__dfhyngt2oc)" mask="url(#iwwregt2v__5r04wl6qyd)" d="M10.4460438 8.68A8.64 8.64 0 1 0 10.4460438 25.96A8.64 8.64 0 1 0 10.4460438 8.68Z"/>
    </g>
  </g>
</svg>
