<?xml version="1.0" standalone="no"?>
<!DOCTYPE svg PUBLIC "-//W3C//DTD SVG 20010904//EN"
 "http://www.w3.org/TR/2001/REC-SVG-20010904/DTD/svg10.dtd">
<svg version="1.0" xmlns="http://www.w3.org/2000/svg"
 width="1023.000000pt" height="1023.000000pt" viewBox="0 0 1023.000000 1023.000000"
 preserveAspectRatio="xMidYMid meet">

<g transform="translate(0.000000,1023.000000) scale(0.100000,-0.100000)"
fill="#000000" stroke="none">
<path d="M627 9890 c-117 -20 -224 -107 -269 -218 l-23 -57 0 -870 0 -870 24
-60 c33 -81 115 -163 196 -196 l60 -24 870 0 870 0 60 24 c81 33 163 115 196
196 l24 60 0 870 0 870 -24 60 c-33 81 -115 163 -196 196 l-60 24 -840 2
c-462 0 -862 -3 -888 -7z m1528 -334 c59 -25 103 -65 130 -119 l25 -51 0 -638
c0 -692 2 -668 -55 -743 -15 -19 -50 -46 -79 -60 l-52 -25 -650 2 -651 3 -49
30 c-30 19 -60 49 -79 79 l-30 49 -3 651 -2 650 25 52 c26 53 70 94 127 119
49 21 1292 22 1343 1z"/>
<path d="M1416 9228 c-132 -15 -270 -105 -346 -225 -99 -155 -94 -374 11 -532
164 -245 524 -286 736 -83 104 100 154 215 154 357 0 300 -250 517 -555 483z"/>
<path d="M3014 9888 c-12 -5 -27 -21 -33 -34 -15 -34 -15 -534 0 -567 20 -44
43 -47 338 -47 257 0 279 -1 294 -18 15 -16 17 -53 17 -314 0 -273 -1 -296
-18 -311 -16 -15 -52 -17 -295 -17 -292 0 -316 -3 -336 -47 -8 -17 -11 -247
-11 -778 0 -531 3 -761 11 -778 17 -38 51 -47 173 -47 147 0 146 1 146 -148 0
-121 9 -154 47 -171 32 -15 518 -15 560 -1 17 6 35 22 42 36 7 17 11 116 11
303 0 257 1 279 18 294 16 15 51 17 289 17 163 0 282 4 300 10 17 6 35 22 42
36 7 17 11 112 11 284 0 172 -4 267 -11 284 -16 34 -57 46 -160 46 -147 0
-159 -14 -159 -184 0 -150 4 -146 -167 -146 -167 0 -163 -4 -163 148 0 125
-10 156 -53 172 -40 13 -200 13 -230 -1 -44 -20 -47 -43 -47 -338 0 -257 -1
-279 -18 -294 -15 -14 -42 -17 -149 -17 -113 0 -132 2 -146 18 -15 17 -17 65
-17 479 0 433 1 461 18 476 16 15 53 17 314 17 273 0 296 -1 311 -18 14 -15
17 -40 17 -130 0 -168 12 -182 159 -182 103 0 144 12 160 46 15 34 15 534 0
568 -17 36 -57 46 -179 46 -143 0 -140 -3 -140 167 0 113 2 132 18 146 16 15
51 17 289 17 163 0 282 4 300 10 44 16 53 47 53 174 0 150 -4 146 167 146 113
0 132 -2 146 -18 15 -16 17 -53 17 -314 0 -273 -1 -296 -18 -311 -15 -14 -40
-17 -130 -17 -169 0 -182 -12 -182 -165 0 -104 10 -137 47 -154 16 -7 119 -11
302 -11 257 0 279 -1 294 -18 14 -15 17 -40 17 -130 0 -168 12 -182 159 -182
103 0 144 12 160 46 7 17 11 112 11 284 0 172 -4 267 -11 284 -17 36 -57 46
-179 46 -143 0 -140 -3 -140 167 0 113 2 132 18 146 17 15 63 17 454 17 278 0
446 4 465 10 17 6 35 22 42 36 15 34 15 534 0 568 -17 36 -57 46 -179 46 -141
0 -140 -1 -140 148 0 125 -10 156 -53 172 -42 14 -528 14 -560 -1 -37 -17 -47
-50 -47 -154 0 -154 13 -165 184 -165 150 0 146 4 146 -167 0 -169 6 -163
-167 -163 -167 0 -163 -4 -163 148 0 125 -10 156 -53 172 -18 6 -138 10 -302
10 -251 0 -273 1 -288 18 -14 15 -17 40 -17 130 0 125 -10 156 -53 172 -42 14
-528 14 -560 -1 -37 -17 -47 -50 -47 -154 0 -154 13 -165 184 -165 150 0 146
4 146 -167 0 -169 6 -163 -167 -163 -167 0 -163 -4 -163 148 0 125 -10 156
-53 172 -18 6 -138 10 -302 10 -251 0 -273 1 -288 18 -14 15 -17 40 -17 130 0
125 -10 156 -53 172 -38 13 -205 12 -233 -2z"/>
<path d="M6314 9888 c-34 -16 -44 -52 -44 -153 0 -104 10 -137 47 -154 30 -14
190 -14 230 -1 42 15 53 47 53 155 0 108 -11 140 -53 155 -38 13 -205 12 -233
-2z"/>
<path d="M7887 9890 c-117 -20 -224 -107 -269 -218 l-23 -57 0 -870 0 -870 24
-60 c33 -81 115 -163 196 -196 l60 -24 870 0 870 0 60 24 c81 33 163 115 196
196 l24 60 0 870 0 870 -24 60 c-33 81 -115 163 -196 196 l-60 24 -840 2
c-462 0 -862 -3 -888 -7z m1528 -334 c59 -25 103 -65 130 -119 l25 -51 0 -638
c0 -692 2 -668 -55 -743 -15 -19 -50 -46 -79 -60 l-52 -25 -650 2 -651 3 -49
30 c-30 19 -60 49 -79 79 l-30 49 -3 651 -2 650 25 52 c26 53 70 94 127 119
49 21 1292 22 1343 1z"/>
<path d="M8676 9228 c-132 -15 -270 -105 -346 -225 -99 -155 -94 -374 11 -532
164 -245 524 -286 736 -83 104 100 154 215 154 357 0 300 -250 517 -555 483z"/>
<path d="M6974 9558 c-34 -16 -44 -52 -44 -153 0 -104 10 -137 47 -154 30 -14
190 -14 230 -1 42 15 53 47 53 155 0 108 -11 140 -53 155 -38 13 -205 12 -233
-2z"/>
<path d="M6314 8898 c-40 -19 -44 -46 -44 -337 0 -257 -1 -279 -18 -294 -15
-14 -40 -17 -130 -17 -169 0 -182 -12 -182 -165 0 -154 13 -165 184 -165 147
0 146 1 146 -148 0 -168 12 -182 159 -182 103 0 144 12 160 46 7 17 11 116 11
303 0 257 1 279 18 294 15 14 40 17 124 17 174 0 188 12 188 165 0 153 -14
165 -190 165 -141 0 -140 -1 -140 148 0 125 -10 156 -53 172 -38 13 -205 12
-233 -2z"/>
<path d="M4994 7908 c-40 -19 -44 -46 -44 -337 0 -257 -1 -279 -18 -294 -15
-14 -40 -17 -130 -17 -121 0 -154 -9 -171 -47 -15 -33 -15 -533 0 -566 6 -14
22 -30 36 -36 32 -15 518 -15 560 -1 17 6 35 22 42 36 7 17 11 116 11 303 0
257 1 279 18 294 15 14 42 17 149 17 167 0 163 4 163 -148 0 -168 12 -182 159
-182 103 0 144 12 160 46 8 17 11 153 11 449 0 296 -3 432 -11 449 -16 34 -57
46 -160 46 -147 0 -159 -14 -159 -184 0 -150 4 -146 -167 -146 -167 0 -163 -4
-163 148 0 125 -10 156 -53 172 -38 13 -205 12 -233 -2z"/>
<path d="M6974 7908 c-34 -16 -44 -52 -44 -153 0 -104 10 -137 47 -154 30 -14
190 -14 230 -1 42 15 53 47 53 155 0 108 -11 140 -53 155 -38 13 -205 12 -233
-2z"/>
<path d="M6644 7578 c-34 -16 -44 -52 -44 -153 0 -104 10 -137 47 -154 30 -14
190 -14 230 -1 42 15 53 47 53 155 0 108 -11 140 -53 155 -38 13 -205 12 -233
-2z"/>
<path d="M374 7248 c-34 -16 -44 -52 -44 -153 0 -154 13 -165 184 -165 150 0
146 4 146 -167 0 -167 4 -163 -148 -163 -121 0 -154 -9 -171 -47 -7 -15 -11
-114 -11 -283 0 -275 4 -299 47 -319 30 -14 190 -14 230 -1 44 16 53 47 53
174 0 147 -1 146 142 146 120 0 160 11 177 46 7 17 11 116 11 303 0 257 1 279
18 294 15 14 40 17 124 17 174 0 188 12 188 165 0 108 -11 140 -53 155 -41 14
-864 13 -893 -2z"/>
<path d="M2024 7248 c-34 -16 -44 -52 -44 -153 0 -104 10 -137 47 -154 32 -15
518 -15 560 -1 42 15 53 47 53 155 0 108 -11 140 -53 155 -40 13 -534 12 -563
-2z"/>
<path d="M7304 7248 c-34 -16 -44 -52 -44 -153 0 -104 10 -137 47 -154 16 -7
119 -11 302 -11 257 0 279 -1 294 -18 15 -16 17 -52 17 -295 0 -292 3 -316 47
-336 32 -15 518 -15 560 -1 42 15 53 47 53 155 0 153 -14 165 -190 165 -143 0
-140 -3 -140 167 0 166 -3 163 142 163 174 0 188 12 188 165 0 108 -11 140
-53 155 -41 14 -1194 13 -1223 -2z"/>
<path d="M9284 7248 c-40 -19 -44 -47 -44 -318 0 -275 4 -299 47 -319 30 -14
190 -14 230 -1 44 16 53 47 53 174 0 147 -1 146 142 146 174 0 188 12 188 165
0 108 -11 140 -53 155 -40 13 -534 12 -563 -2z"/>
<path d="M2684 6918 c-34 -16 -44 -52 -44 -153 0 -104 10 -137 47 -154 30 -14
190 -14 230 -1 42 15 53 47 53 155 0 108 -11 140 -53 155 -38 13 -205 12 -233
-2z"/>
<path d="M6314 6918 c-35 -16 -44 -52 -44 -172 0 -97 -3 -115 -18 -129 -17
-15 -63 -17 -460 -17 -302 0 -449 -4 -465 -11 -43 -20 -47 -44 -47 -319 0
-169 4 -268 11 -283 17 -38 51 -47 173 -47 97 0 115 -3 129 -18 15 -16 17 -53
17 -314 0 -273 -1 -296 -18 -311 -17 -15 -65 -17 -479 -17 -433 0 -461 1 -476
18 -14 15 -17 42 -17 149 0 166 -3 163 142 163 120 0 160 11 177 46 15 34 15
534 0 568 -16 34 -57 46 -160 46 -147 0 -159 -14 -159 -184 0 -97 -3 -115 -18
-129 -16 -15 -52 -17 -295 -17 -292 0 -316 -3 -336 -47 -14 -31 -14 -205 0
-236 17 -38 51 -47 173 -47 97 0 115 -3 129 -18 15 -16 17 -53 17 -314 0 -273
-1 -296 -18 -311 -15 -14 -42 -17 -149 -17 -167 0 -163 -4 -163 148 0 125 -10
156 -53 172 -19 6 -188 10 -467 10 -411 0 -438 1 -453 18 -15 17 -17 63 -17
460 0 308 -3 449 -11 466 -16 34 -57 46 -160 46 -147 0 -159 -14 -159 -184 0
-150 4 -146 -167 -146 -167 0 -163 -4 -163 148 0 62 -5 122 -11 136 -17 36
-57 46 -179 46 -141 0 -140 -1 -140 148 0 62 -5 122 -11 136 -16 34 -57 46
-160 46 -98 0 -131 -11 -148 -47 -8 -16 -11 -164 -11 -467 0 -416 -1 -444 -18
-459 -15 -14 -40 -17 -130 -17 -121 0 -154 -9 -171 -47 -14 -31 -14 -205 0
-236 20 -44 43 -47 338 -47 257 0 279 -1 294 -18 14 -15 17 -40 17 -130 0
-121 9 -154 47 -171 17 -8 208 -11 632 -11 576 0 609 -1 624 -18 14 -15 17
-42 17 -149 0 -167 4 -163 -148 -163 -169 0 -182 -12 -182 -165 0 -104 10
-137 47 -154 32 -15 518 -15 560 -1 44 16 53 47 53 174 0 97 3 115 18 129 17
15 63 17 454 17 278 0 446 4 465 10 44 16 53 47 53 174 0 150 -4 146 167 146
169 0 163 6 163 -167 0 -167 4 -163 -148 -163 -121 0 -154 -9 -171 -47 -15
-33 -15 -533 0 -566 6 -14 22 -30 36 -36 32 -15 518 -15 560 -1 17 6 35 22 42
36 7 17 11 116 11 303 0 257 1 279 18 294 15 14 40 17 124 17 120 0 160 11
177 46 6 14 11 75 11 138 0 147 -1 146 142 146 120 0 160 11 177 46 7 17 11
116 11 303 0 257 1 279 18 294 15 14 40 17 124 17 174 0 188 12 188 165 0 153
-14 165 -190 165 -143 0 -140 -3 -140 167 0 113 2 132 18 146 16 15 53 17 314
17 273 0 296 -1 311 -18 15 -17 17 -75 17 -625 0 -423 3 -613 11 -630 17 -36
50 -47 148 -47 103 0 144 12 160 46 8 17 11 158 11 468 0 416 1 444 18 459 16
15 51 17 289 17 163 0 282 4 300 10 42 15 53 47 53 155 0 153 -14 165 -190
165 -91 0 -109 3 -123 18 -15 16 -17 52 -17 295 0 185 -4 284 -11 301 -16 34
-57 46 -160 46 -147 0 -159 -14 -159 -184 0 -150 4 -146 -167 -146 -167 0
-163 -4 -163 148 0 125 -10 156 -53 172 -38 13 -205 12 -233 -2z m-3692 -1325
c16 -14 18 -33 18 -146 0 -173 6 -167 -163 -167 -173 0 -167 -6 -167 163 0
173 -6 167 163 167 107 0 134 -3 149 -17z"/>
<path d="M8624 6918 c-34 -16 -44 -52 -44 -153 0 -104 10 -137 47 -154 30 -14
190 -14 230 -1 42 15 53 47 53 155 0 108 -11 140 -53 155 -38 13 -205 12 -233
-2z"/>
<path d="M2354 6588 c-34 -16 -44 -52 -44 -153 0 -104 10 -137 47 -154 30 -14
190 -14 230 -1 42 15 53 47 53 155 0 108 -11 140 -53 155 -38 13 -205 12 -233
-2z"/>
<path d="M4004 6588 c-34 -16 -44 -52 -44 -153 0 -104 10 -137 47 -154 30 -14
190 -14 230 -1 42 15 53 47 53 155 0 108 -11 140 -53 155 -38 13 -205 12 -233
-2z"/>
<path d="M9614 6588 c-12 -5 -27 -21 -33 -34 -15 -34 -15 -534 0 -567 17 -36
50 -47 148 -47 103 0 144 12 160 46 15 34 15 534 0 568 -7 14 -25 30 -42 36
-38 13 -205 12 -233 -2z"/>
<path d="M1034 6258 c-12 -5 -27 -21 -33 -34 -15 -34 -15 -534 0 -567 17 -36
50 -47 148 -47 103 0 144 12 160 46 15 34 15 534 0 568 -7 14 -25 30 -42 36
-38 13 -205 12 -233 -2z"/>
<path d="M3344 6258 c-12 -5 -27 -21 -33 -34 -15 -34 -15 -534 0 -567 17 -36
50 -47 148 -47 103 0 144 12 160 46 7 17 11 112 11 284 0 172 -4 267 -11 284
-7 14 -25 30 -42 36 -38 13 -205 12 -233 -2z"/>
<path d="M7634 5928 c-35 -16 -44 -52 -44 -172 0 -147 1 -146 -148 -146 -121
0 -154 -9 -171 -47 -7 -16 -11 -119 -11 -302 0 -257 -1 -279 -18 -294 -15 -14
-40 -17 -130 -17 -121 0 -154 -9 -171 -47 -7 -16 -11 -119 -11 -302 0 -257 -1
-279 -18 -294 -16 -15 -52 -17 -295 -17 -292 0 -316 -3 -336 -47 -14 -31 -14
-205 0 -236 17 -38 51 -47 173 -47 147 0 146 1 146 -148 0 -173 10 -182 184
-182 150 0 146 4 146 -167 0 -167 4 -163 -148 -163 -121 0 -154 -9 -171 -47
-7 -15 -11 -114 -11 -283 0 -169 4 -268 11 -283 17 -38 51 -47 173 -47 150 0
146 4 146 -167 0 -167 4 -163 -148 -163 -121 0 -154 -9 -171 -47 -7 -16 -11
-119 -11 -302 0 -257 -1 -279 -18 -294 -15 -14 -40 -17 -130 -17 -121 0 -154
-9 -171 -47 -7 -15 -11 -114 -11 -283 0 -275 4 -299 47 -319 16 -7 119 -11
302 -11 257 0 279 -1 294 -18 15 -16 17 -52 17 -295 0 -292 3 -316 47 -336 30
-14 190 -14 230 -1 44 16 53 47 53 174 0 147 -1 146 142 146 120 0 160 11 177
46 6 14 11 75 11 138 0 147 -1 146 142 146 174 0 188 12 188 165 0 153 -14
165 -190 165 -143 0 -140 -3 -140 167 0 113 2 132 18 146 16 15 53 17 314 17
273 0 296 -1 311 -18 15 -16 17 -53 17 -314 0 -273 -1 -296 -18 -311 -15 -14
-40 -17 -130 -17 -173 0 -182 -10 -182 -184 0 -147 1 -146 -148 -146 -169 0
-182 -12 -182 -165 0 -104 10 -137 47 -154 32 -15 518 -15 560 -1 44 16 53 47
53 174 0 150 -4 146 167 146 167 0 163 4 163 -148 0 -168 12 -182 159 -182
103 0 144 12 160 46 7 17 11 112 11 284 0 172 -4 267 -11 284 -17 36 -57 46
-179 46 -143 0 -140 -3 -140 167 0 166 -3 163 142 163 174 0 188 12 188 165 0
153 -14 165 -190 165 -143 0 -140 -3 -140 167 0 166 -3 163 142 163 120 0 160
11 177 46 15 34 15 534 0 568 -17 36 -57 46 -179 46 -91 0 -109 3 -123 18 -15
16 -17 52 -17 295 0 185 -4 284 -11 301 -17 36 -57 46 -179 46 -143 0 -140 -3
-140 167 0 166 -3 163 142 163 174 0 188 12 188 165 0 153 -14 165 -190 165
-141 0 -140 -1 -140 148 0 62 -5 122 -11 136 -17 36 -57 46 -179 46 -141 0
-140 -1 -140 148 0 125 -10 156 -53 172 -40 13 -200 13 -230 -1 -43 -20 -47
-44 -47 -319 0 -169 4 -268 11 -283 17 -38 51 -47 173 -47 150 0 146 4 146
-167 0 -167 4 -163 -148 -163 -173 0 -182 -10 -182 -184 0 -150 4 -146 -167
-146 -169 0 -163 -6 -163 167 0 166 -3 163 142 163 174 0 188 12 188 165 0
153 -14 165 -190 165 -91 0 -109 3 -123 18 -15 16 -17 53 -17 314 0 273 1 296
18 311 15 14 40 17 124 17 120 0 160 11 177 46 6 14 11 75 11 138 0 147 -1
146 142 146 120 0 160 11 177 46 6 14 11 75 11 138 0 147 -1 146 142 146 174
0 188 12 188 165 0 153 -14 165 -190 165 -141 0 -140 -1 -140 148 0 125 -10
156 -53 172 -38 13 -205 12 -233 -2z m598 -2975 c17 -15 18 -43 18 -476 0
-414 -2 -462 -17 -479 -15 -17 -43 -18 -476 -18 -414 0 -462 2 -479 17 -17 15
-18 43 -18 476 0 414 2 462 17 479 15 17 43 18 476 18 414 0 462 -2 479 -17z
m-990 -1320 c16 -14 18 -33 18 -146 0 -173 6 -167 -163 -167 -173 0 -167 -6
-167 163 0 173 -6 167 163 167 107 0 134 -3 149 -17z"/>
<path d="M7634 2628 c-34 -16 -44 -52 -44 -153 0 -104 10 -137 47 -154 30 -14
190 -14 230 -1 42 15 53 47 53 155 0 108 -11 140 -53 155 -38 13 -205 12 -233
-2z"/>
<path d="M9284 5928 c-12 -5 -27 -21 -33 -34 -15 -34 -15 -534 0 -567 17 -38
51 -47 173 -47 147 0 146 1 146 -148 0 -168 12 -182 159 -182 103 0 144 12
160 46 7 17 11 112 11 284 0 172 -4 267 -11 284 -17 36 -57 46 -179 46 -141 0
-140 -1 -140 148 0 125 -10 156 -53 172 -38 13 -205 12 -233 -2z"/>
<path d="M374 5598 c-34 -16 -44 -52 -44 -153 0 -104 10 -137 47 -154 30 -14
190 -14 230 -1 42 15 53 47 53 155 0 108 -11 140 -53 155 -38 13 -205 12 -233
-2z"/>
<path d="M8624 5598 c-34 -16 -44 -52 -44 -153 0 -104 10 -137 47 -154 30 -14
190 -14 230 -1 42 15 53 47 53 155 0 108 -11 140 -53 155 -38 13 -205 12 -233
-2z"/>
<path d="M704 5268 c-40 -19 -44 -46 -44 -337 0 -257 -1 -279 -18 -294 -15
-14 -40 -17 -130 -17 -169 0 -182 -12 -182 -165 0 -104 10 -137 47 -154 32
-15 847 -15 890 -1 17 6 35 22 42 36 15 34 15 534 0 568 -17 36 -57 46 -179
46 -141 0 -140 -1 -140 148 0 125 -10 156 -53 172 -38 13 -205 12 -233 -2z"/>
<path d="M8294 5268 c-12 -5 -27 -21 -33 -34 -15 -35 -15 -863 0 -897 17 -36
50 -47 148 -47 103 0 144 12 160 46 6 14 11 75 11 138 0 147 -1 146 142 146
174 0 188 12 188 165 0 153 -14 165 -190 165 -141 0 -140 -1 -140 148 0 125
-10 156 -53 172 -38 13 -205 12 -233 -2z"/>
<path d="M6314 4938 c-34 -16 -44 -52 -44 -153 0 -104 10 -137 47 -154 30 -14
190 -14 230 -1 42 15 53 47 53 155 0 108 -11 140 -53 155 -38 13 -205 12 -233
-2z"/>
<path d="M9284 4938 c-35 -16 -44 -52 -44 -172 0 -147 1 -146 -148 -146 -169
0 -182 -12 -182 -165 0 -154 13 -165 184 -165 147 0 146 1 146 -148 0 -168 12
-182 159 -182 103 0 144 12 160 46 8 17 11 153 11 449 0 296 -3 432 -11 449
-7 14 -25 30 -42 36 -38 13 -205 12 -233 -2z"/>
<path d="M1694 4608 c-35 -16 -44 -52 -44 -172 0 -147 1 -146 -148 -146 -169
0 -182 -12 -182 -165 0 -154 13 -165 184 -165 97 0 115 -3 129 -18 15 -16 17
-53 17 -314 0 -273 -1 -296 -18 -311 -17 -15 -75 -17 -625 -17 -423 0 -613 -3
-630 -11 -37 -17 -47 -50 -47 -154 0 -104 10 -137 47 -154 33 -15 2167 -16
2210 -1 42 15 53 47 53 155 0 108 -11 140 -53 155 -18 6 -138 10 -302 10 -251
0 -273 1 -288 18 -15 16 -17 53 -17 314 0 273 1 296 18 311 15 14 40 17 124
17 174 0 188 12 188 165 0 153 -14 165 -190 165 -141 0 -140 -1 -140 148 0
125 -10 156 -53 172 -38 13 -205 12 -233 -2z"/>
<path d="M2354 4608 c-34 -16 -44 -52 -44 -153 0 -104 10 -137 47 -154 30 -14
190 -14 230 -1 42 15 53 47 53 155 0 108 -11 140 -53 155 -38 13 -205 12 -233
-2z"/>
<path d="M5654 4608 c-40 -19 -44 -47 -44 -318 0 -275 4 -299 47 -319 30 -14
190 -14 230 -1 44 16 53 47 53 174 0 147 -1 146 142 146 174 0 188 12 188 165
0 108 -11 140 -53 155 -40 13 -534 12 -563 -2z"/>
<path d="M3674 4278 c-34 -16 -44 -52 -44 -153 0 -104 10 -137 47 -154 30 -14
190 -14 230 -1 42 15 53 47 53 155 0 108 -11 140 -53 155 -38 13 -205 12 -233
-2z"/>
<path d="M8624 4278 c-34 -16 -44 -52 -44 -153 0 -104 10 -137 47 -154 30 -14
190 -14 230 -1 42 15 53 47 53 155 0 108 -11 140 -53 155 -38 13 -205 12 -233
-2z"/>
<path d="M374 3948 c-34 -16 -44 -52 -44 -153 0 -104 10 -137 47 -154 32 -15
518 -15 560 -1 42 15 53 47 53 155 0 108 -11 140 -53 155 -40 13 -534 12 -563
-2z"/>
<path d="M2354 3948 c-34 -16 -44 -52 -44 -153 0 -154 13 -165 184 -165 147 0
146 1 146 -148 0 -121 9 -154 47 -171 16 -7 119 -11 302 -11 257 0 279 -1 294
-18 14 -15 17 -42 17 -149 0 -167 4 -163 -148 -163 -169 0 -182 -12 -182 -165
0 -154 13 -165 184 -165 147 0 146 1 146 -148 0 -173 10 -182 184 -182 97 0
115 -3 129 -18 15 -16 17 -52 17 -295 0 -292 3 -316 47 -336 30 -14 190 -14
230 -1 44 16 53 47 53 174 0 97 3 115 18 129 16 15 51 17 289 17 163 0 282 4
300 10 44 16 53 47 53 174 0 150 -4 146 167 146 169 0 163 6 163 -167 0 -167
4 -163 -148 -163 -121 0 -154 -9 -171 -47 -15 -33 -15 -533 0 -566 6 -14 22
-30 36 -36 32 -15 518 -15 560 -1 17 6 35 22 42 36 8 17 11 158 11 468 0 416
1 444 18 459 16 15 51 17 289 17 163 0 282 4 300 10 42 15 53 47 53 155 0 153
-14 165 -190 165 -91 0 -109 3 -123 18 -15 17 -17 75 -17 625 0 432 -3 613
-11 631 -16 34 -57 46 -160 46 -98 0 -131 -11 -148 -47 -8 -17 -11 -208 -11
-632 0 -576 -1 -609 -18 -624 -16 -15 -53 -17 -314 -17 -273 0 -296 1 -311 18
-14 15 -17 42 -17 149 0 166 -3 163 142 163 120 0 160 11 177 46 15 34 15 534
0 568 -16 34 -57 46 -160 46 -147 0 -159 -14 -159 -184 0 -97 -3 -115 -18
-129 -16 -15 -53 -17 -314 -17 -273 0 -296 1 -311 18 -14 15 -17 40 -17 130 0
62 -5 122 -11 136 -17 36 -57 46 -179 46 -141 0 -140 -1 -140 148 0 125 -10
156 -53 172 -41 14 -1194 13 -1223 -2z m1918 -995 c17 -15 18 -38 18 -311 0
-261 -2 -298 -17 -314 -14 -16 -33 -18 -146 -18 -171 0 -167 -4 -167 146 0 63
-5 124 -11 138 -17 35 -57 46 -177 46 -145 0 -142 -3 -142 163 0 107 3 134 17
149 15 17 38 18 311 18 261 0 298 -2 314 -17z"/>
<path d="M4004 3948 c-34 -16 -44 -52 -44 -153 0 -104 10 -137 47 -154 30 -14
190 -14 230 -1 42 15 53 47 53 155 0 108 -11 140 -53 155 -38 13 -205 12 -233
-2z"/>
<path d="M9614 3948 c-34 -16 -44 -52 -44 -153 0 -104 10 -137 47 -154 30 -14
190 -14 230 -1 42 15 53 47 53 155 0 108 -11 140 -53 155 -38 13 -205 12 -233
-2z"/>
<path d="M6314 3618 c-34 -16 -44 -52 -44 -153 0 -104 10 -137 47 -154 30 -14
190 -14 230 -1 42 15 53 47 53 155 0 108 -11 140 -53 155 -38 13 -205 12 -233
-2z"/>
<path d="M8624 3618 c-34 -16 -44 -52 -44 -153 0 -104 10 -137 47 -154 30 -14
190 -14 230 -1 42 15 53 47 53 155 0 108 -11 140 -53 155 -38 13 -205 12 -233
-2z"/>
<path d="M8954 3288 c-40 -19 -44 -47 -44 -318 0 -275 4 -299 47 -319 32 -15
518 -15 560 -1 42 15 53 47 53 155 0 153 -14 165 -190 165 -141 0 -140 -1
-140 148 0 125 -10 156 -53 172 -38 13 -205 12 -233 -2z"/>
<path d="M9614 3288 c-34 -16 -44 -52 -44 -153 0 -104 10 -137 47 -154 30 -14
190 -14 230 -1 42 15 53 47 53 155 0 108 -11 140 -53 155 -38 13 -205 12 -233
-2z"/>
<path d="M5984 2958 c-34 -16 -44 -52 -44 -153 0 -104 10 -137 47 -154 30 -14
190 -14 230 -1 42 15 53 47 53 155 0 108 -11 140 -53 155 -38 13 -205 12 -233
-2z"/>
<path d="M627 2630 c-117 -20 -224 -107 -269 -218 l-23 -57 0 -870 0 -870 24
-60 c33 -81 115 -163 196 -196 l60 -24 870 0 870 0 60 24 c81 33 163 115 196
196 l24 60 0 870 0 870 -24 60 c-33 81 -115 163 -196 196 l-60 24 -840 2
c-462 0 -862 -3 -888 -7z m1528 -334 c59 -25 103 -65 130 -119 l25 -51 0 -638
c0 -692 2 -668 -55 -743 -15 -19 -50 -46 -79 -60 l-52 -25 -650 2 -651 3 -49
30 c-30 19 -60 49 -79 79 l-30 49 -3 651 -2 650 25 52 c26 53 70 94 127 119
49 21 1292 22 1343 1z"/>
<path d="M1416 1968 c-132 -15 -270 -105 -346 -225 -99 -155 -94 -374 11 -532
164 -245 524 -286 736 -83 104 100 154 215 154 357 0 300 -250 517 -555 483z"/>
<path d="M6314 2628 c-34 -16 -44 -52 -44 -153 0 -104 10 -137 47 -154 30 -14
190 -14 230 -1 42 15 53 47 53 155 0 108 -11 140 -53 155 -38 13 -205 12 -233
-2z"/>
<path d="M9614 2628 c-40 -19 -44 -46 -44 -337 0 -257 -1 -279 -18 -294 -16
-15 -52 -17 -295 -17 -181 0 -284 -4 -300 -11 -37 -17 -47 -50 -47 -154 0
-104 10 -137 47 -154 16 -7 119 -11 302 -11 257 0 279 -1 294 -18 14 -15 17
-42 17 -149 0 -167 4 -163 -148 -163 -169 0 -182 -12 -182 -165 0 -104 10
-137 47 -154 32 -15 518 -15 560 -1 17 6 35 22 42 36 8 18 11 237 11 779 0
542 -3 761 -11 779 -7 14 -25 30 -42 36 -38 13 -205 12 -233 -2z"/>
<path d="M3014 2298 c-34 -16 -44 -52 -44 -153 0 -104 10 -137 47 -154 30 -14
190 -14 230 -1 42 15 53 47 53 155 0 108 -11 140 -53 155 -38 13 -205 12 -233
-2z"/>
<path d="M5654 1968 c-40 -19 -44 -47 -44 -318 0 -275 4 -299 47 -319 30 -14
190 -14 230 -1 44 16 53 47 53 174 0 147 -1 146 142 146 174 0 188 12 188 165
0 108 -11 140 -53 155 -40 13 -534 12 -563 -2z"/>
<path d="M3344 1638 c-34 -16 -44 -52 -44 -153 0 -104 10 -137 47 -154 30 -14
190 -14 230 -1 42 15 53 47 53 155 0 108 -11 140 -53 155 -38 13 -205 12 -233
-2z"/>
<path d="M3014 1308 c-12 -5 -27 -21 -33 -34 -15 -35 -15 -863 0 -897 17 -36
50 -47 148 -47 103 0 144 12 160 46 6 14 11 75 11 138 0 147 -1 146 142 146
174 0 188 12 188 165 0 153 -14 165 -190 165 -141 0 -140 -1 -140 148 0 125
-10 156 -53 172 -38 13 -205 12 -233 -2z"/>
<path d="M3674 1308 c-34 -16 -44 -52 -44 -153 0 -104 10 -137 47 -154 32 -15
518 -15 560 -1 42 15 53 47 53 155 0 108 -11 140 -53 155 -40 13 -534 12 -563
-2z"/>
<path d="M5324 1308 c-34 -16 -44 -52 -44 -153 0 -104 10 -137 47 -154 30 -14
190 -14 230 -1 42 15 53 47 53 155 0 108 -11 140 -53 155 -38 13 -205 12 -233
-2z"/>
<path d="M4664 978 c-35 -16 -44 -52 -44 -172 0 -97 -3 -115 -18 -129 -16 -15
-52 -17 -295 -17 -181 0 -284 -4 -300 -11 -37 -17 -47 -50 -47 -154 0 -104 10
-137 47 -154 32 -15 847 -15 890 -1 17 6 35 22 42 36 7 17 11 112 11 284 0
172 -4 267 -11 284 -7 14 -25 30 -42 36 -38 13 -205 12 -233 -2z"/>
<path d="M5654 978 c-34 -16 -44 -52 -44 -153 0 -104 10 -137 47 -154 30 -14
190 -14 230 -1 42 15 53 47 53 155 0 108 -11 140 -53 155 -38 13 -205 12 -233
-2z"/>
<path d="M5324 648 c-34 -16 -44 -52 -44 -153 0 -104 10 -137 47 -154 30 -14
190 -14 230 -1 42 15 53 47 53 155 0 108 -11 140 -53 155 -38 13 -205 12 -233
-2z"/>
<path d="M6314 648 c-34 -16 -44 -52 -44 -153 0 -104 10 -137 47 -154 30 -14
190 -14 230 -1 42 15 53 47 53 155 0 108 -11 140 -53 155 -38 13 -205 12 -233
-2z"/>
<path d="M9614 648 c-34 -16 -44 -52 -44 -153 0 -104 10 -137 47 -154 30 -14
190 -14 230 -1 42 15 53 47 53 155 0 108 -11 140 -53 155 -38 13 -205 12 -233
-2z"/>
</g>
</svg>
